<svg id="Layer_1" data-name="Layer 1" xmlns="http://www.w3.org/2000/svg" width="23.38in" height="33.1in" viewBox="0 0 1683 2383"><defs><style>.cls-1,.cls-12,.cls-2,.cls-3{fill:#00007f;}.cls-1,.cls-10,.cls-11,.cls-2{stroke:#000;}.cls-10,.cls-13,.cls-2,.cls-3,.cls-4,.cls-5,.cls-6,.cls-7,.cls-8,.cls-9{fill-rule:evenodd;}.cls-5{fill:#ebd02b;}.cls-6{fill:red;}.cls-7{fill:#27633f;}.cls-8{fill:#61221b;}.cls-9{fill:#aa8f71;}.cls-10,.cls-11{fill:none;stroke-width:0;}.cls-13{fill:#fff;}</style></defs><polygon class="cls-1" points="692.7 2054.13 716.17 2054.13 716.17 2119.44 700.6 2119.44 700.6 2065.8 683.62 2065.8 692.7 2054.13"/><path class="cls-2" d="M794,2121.08l-13.33-5.24,14.44-22.24a27.49,27.49,0,0,1-17.85-5.94q-7.35-6-7.35-14.77,0-8.57,7.54-14.49a28.55,28.55,0,0,1,18.18-5.92q11.15,0,18.57,6.15t7.42,14.12a16.89,16.89,0,0,1-1.15,6.05,56.2,56.2,0,0,1-5.29,9.38Zm2-39.25a10.94,10.94,0,0,0,7.34-2.52,8.08,8.08,0,0,0-.14-12.63,11,11,0,0,0-7.25-2.56,11.57,11.57,0,0,0-7.51,2.54,8,8,0,0,0-.09,12.65A11.63,11.63,0,0,0,796,2081.83Z"/><path class="cls-2" d="M889.66,2052.48h15.63v42.05h7.34V2106h-7.34v13.41H889.94V2106H854v-11.5Zm.28,42.05v-21.89l-18.82,21.89Z"/><polygon class="cls-2" points="947.09 2054.13 1001.16 2054.13 1001.16 2060.65 963.96 2121.08 950.71 2115.99 981.66 2065.8 947.09 2065.8 947.09 2054.13"/><path class="cls-3" d="M296.3,595.39l35.92-27.66q15.5,17.1,31.71,19.52t34.14-8.8q19-11.88,23.59-26t-2.13-24.81a20.89,20.89,0,0,0-11.41-9.22q-7.08-2.31-19.42.42-8.4,1.93-36.8,11.2-36.51,11.94-56.4,8.5-28-4.85-42.45-28a59,59,0,0,1-9-33.1q.33-18.23,12-34.93t34.07-30.76q36.64-22.94,65.24-18.46t46.3,30.71l-38.23,26.33Q351.5,437,339.08,435.63t-29,9q-17.15,10.73-22.42,23.83a16.72,16.72,0,0,0,1.32,16q4.32,6.9,13.24,8.16,11.34,1.59,44.27-9.59t51.2-12.55a64.58,64.58,0,0,1,33.9,6.32Q447.2,484.5,458.75,503a67.49,67.49,0,0,1,10.32,37.16q-.15,20.43-12.7,38.17T418.45,611.9Q381.54,635,351.06,630.33T296.3,595.39Z"/><path class="cls-3" d="M598.54,519.31,552.18,294.36l72.89-15q41.43-8.54,54.7-7.76,20.38,1.08,36.92,15.35t22.07,41.12q4.28,20.71-.34,36.38t-14.53,26.11a67.11,67.11,0,0,1-21.36,15.52q-15.6,6.58-46.44,12.93l-29.62,6.11L644,510Zm6.9-196.25,13.16,63.83,24.86-5.12q26.85-5.53,35.17-10.93a30.46,30.46,0,0,0,11.92-14,30.9,30.9,0,0,0,1.54-18.55Q689.56,326,680.7,319.54a32.05,32.05,0,0,0-20.32-6.21q-8.45.15-33,5.2Z"/><path class="cls-3" d="M867.92,366.15q5.18-34.71,19.08-56.71a108,108,0,0,1,25.8-28,89.29,89.29,0,0,1,32.41-16.07q22.57-5.82,50.31-1.68,50.2,7.5,75.69,43.14T1088.42,398q-8.2,55-42.75,81.61T961.08,498.7q-50.67-7.56-76-42.94T867.92,366.15Zm47.49,5.51q-5.76,38.58,9.09,61.15t42.27,26.67q27.43,4.09,48-13t26.43-56.64q5.83-39.06-8.43-60.82t-42.61-26q-28.35-4.23-48.61,12.63T915.41,371.66Z"/><path class="cls-3" d="M1293.56,524.84l19.49-33.44,86.35,50.34-46.08,79q-19.68,4.85-49,.19A153.8,153.8,0,0,1,1250.55,602q-31.14-18.15-46.66-44.7a96.1,96.1,0,0,1-13-57.64q2.52-31.08,19.17-59.64,18.08-31,45.11-47.51t59.57-14.78q24.84,1.25,53.27,17.82,36.95,21.54,48.69,49.15t1.76,58.42l-44.13-15.75q4.32-17.07-2.32-32.27t-24-25.31q-26.26-15.3-51.46-7.69t-44.3,40.37q-20.6,35.33-15.19,62.14t30.85,41.65a79.75,79.75,0,0,0,28.12,9.77,99.9,99.9,0,0,0,28.71.69l14.67-25.18Z"/><path class="cls-4" d="M1049.19,1148.62c20.31,15.34,35.86,19.26,43.7,20.7,12.93,2.39,27.33,1.07,38.5-6.45a31.24,31.24,0,0,0,7.26-6.74,20.32,20.32,0,0,0,4.57-12.85c18.92,6.45,39.5,9.37,59.17,4.71a60.69,60.69,0,0,0,15.85-6.15,40.44,40.44,0,0,0,6.26-4.35c3.67-3,6.92-7.19,8.18-11.78a14.19,14.19,0,0,0-.19-8.36,88.7,88.7,0,0,0,10.74,1.76c18.91,2,38.59-2.7,53.24-15.21a44.54,44.54,0,0,0,9.78-11.52,24.2,24.2,0,0,0,2.37-5.68,13.92,13.92,0,0,0,.12-7.52c2.42.23,4.84.41,7.27.56,13.63.85,27.34.25,40.67-2.87a87,87,0,0,0,20.18-7.43c14.31-7.42,26-19.67,33.45-33.92q9.63.33,19.25.51a59.37,59.37,0,0,0,20.32-1.28,88.13,88.13,0,0,0,20.61-7.77,128.3,128.3,0,0,0,23.9-16.22,131,131,0,0,0,13.38-13.07c4.28-4.82,10.89-13.16,12.28-20.36a12.48,12.48,0,0,0,.13-3.81,9.17,9.17,0,0,0-4.45-6.82l-1.6-.62q-49.94-3.47-99.69-8.84-53.6-5.88-106.92-14l-.41-1.31q-40.48-12.81-80.77-26.19-41.65-13.83-82.86-29l0-.42A411.57,411.57,0,0,0,1097,864c-16.79-6.82-35.18-12.86-53.23-15.69a98.31,98.31,0,0,0-26.49-.82,56.83,56.83,0,0,0-10.64,2.29c-22.1,7.11-42.71,22.75-52.42,44.33-8.73,19.38-6.78,39.63,1.47,58.48a186.13,186.13,0,0,0-22.73-5.39q5.05-23.48,9.56-47.06,5.87-30.55,10.42-61.32c4.88-32.7,8.41-66.53,9.09-99.76a398.91,398.91,0,0,0-1.16-40.47c-.63-7.82-1.6-15.62-2.93-23.35A184.25,184.25,0,0,0,951.51,649a121.65,121.65,0,0,0-11.32-25.14c-10.65-17.85-26.5-30.7-46.35-36.83a100.67,100.67,0,0,0-14.33-3.35c-14.77-2.32-31-1.83-46,.35a290.65,290.65,0,0,0-31.6,6.35l-.22.07a66.46,66.46,0,0,0-16.59,8.61,116.24,116.24,0,0,0-14.75,12.2,149.74,149.74,0,0,0-14.48,16.14c-4.75,6.13-10,14-12.68,21.38a26.74,26.74,0,0,0-1.4,5.5,188.64,188.64,0,0,0-2.9,21,156.72,156.72,0,0,0,0,24,170.23,170.23,0,0,0,10.89,47.3l-7.48,190.4-7.25-.35,1.24-1.45a163.14,163.14,0,0,0,1.09-27.51,104.54,104.54,0,0,0-1.59-13.89c-3.87-21.37-14.79-37.67-33.25-49.11A109.46,109.46,0,0,0,687.6,837c.12-1.59.24-3.18.37-4.77q1.14-10.85,3.17-21.56,2.28-12.06,5-24,2.76-12.21,5.21-24.48c3.95-19.69,6.56-44,4.5-64.68-1.36-13.64-5-27.31-13.19-38.55a54.28,54.28,0,0,0-19.87-16.75,35,35,0,0,0,.4-8.05q-.09-4.06.12-8.13l.42-8.5q1.06-16.74,2-33.47c.11-2,.63-12.08.27-15.58l-.24-1.7a8.16,8.16,0,0,0-1.83-3.74,6.85,6.85,0,0,0-5.5-2.23v0l-11.41,0c-2.84,14.34-2.82,27.41-2,41.84q.41,7.13.56,14.25a93.55,93.55,0,0,1-.87,15.33c0,.59.25,4.2.32,5.06a44.33,44.33,0,0,0-21.69,4.69A66.51,66.51,0,0,0,620.72,650c-12.15,9.84-21.94,23.37-28.53,37.64A94.83,94.83,0,0,0,583.12,722a84.7,84.7,0,0,0,.3,12.94c1.4,14.16,5.49,27.71,9.89,41.19q2.22,6.81,4.36,13.63,2.33,7.39,4.19,14.92a133.65,133.65,0,0,1,2.78,14.73,89.24,89.24,0,0,1,.64,16.42l0,.64c.12.85.24,1.71.35,2.56L604,837.75,551.8,859.58l-.21,1-.16-.15-3.33-.83q-83.57,22.08-168.16,40l-.53,1.27q-48.8,2.59-97.66,3.36-55.09.76-110.18-.81l-1.64.46a9.07,9.07,0,0,0-5,5.93,11.91,11.91,0,0,0-.34,4.37A22.35,22.35,0,0,0,166,920a54,54,0,0,0,4.39,8.85,110.12,110.12,0,0,0,10.38,14.27,135.76,135.76,0,0,0,22.29,21c9.42,7.08,20.43,13,32,15.67a55.92,55.92,0,0,0,13.82,1.49q9.59.75,19.17,1.37a81.68,81.68,0,0,0,23.51,32.28,78.89,78.89,0,0,0,16.56,10.35,100.22,100.22,0,0,0,19.73,6.78,165.16,165.16,0,0,0,37,4c-2.49,6.38,1,14.23,4.55,19.33,7.9,11.45,20.51,19.57,33.75,23.55a80.65,80.65,0,0,0,30,2.95c1.3-.11,2.6-.24,3.9-.41-2.28,4.92-1.12,10.72,1.61,15.21a30.63,30.63,0,0,0,4.72,6,48.07,48.07,0,0,0,12.75,8.94,71.55,71.55,0,0,0,14.63,5.33,101.31,101.31,0,0,0,31,2.42A138.28,138.28,0,0,0,523.4,1116a17.2,17.2,0,0,0,.71,7.64,24.54,24.54,0,0,0,3.87,7.48c4.83,6.37,12.17,10.93,19.8,13.3a57,57,0,0,0,15.87,2.59,72.13,72.13,0,0,0,15.17-1.26,93,93,0,0,0,15.37-4.3,120,120,0,0,0,14-6.3,153.84,153.84,0,0,0,14.06-8.44l.49-.35.63,4.35,77.3,30.8,3.62-.58,7.65-6.35-2.13,2.41c-1.42,1.63-2.79,3.3-4.13,5-.88,1.11-1.71,2.26-2.51,3.43-1.56,2.28-3.12,5-3,7.88l-.28-1.09c-19.51,29.55-23.28,65-13.14,98.26a103.8,103.8,0,0,0,12,25.9,119.27,119.27,0,0,0,20.39,24,156.94,156.94,0,0,0,25.68,18.84,205.5,205.5,0,0,0,29,14.15q0,50.31-.41,100.61l-9.06,4.79c-34,18-71.54,40.14-76.29,83A61.61,61.61,0,0,0,698.94,1584a82.82,82.82,0,0,0,10.8,12.69,110.43,110.43,0,0,0,12.59,10.45,146.59,146.59,0,0,0,15.08,9.4,201.4,201.4,0,0,0,32.69,14.08l-.4,109.82a76.84,76.84,0,0,0,.73,16.53A68,68,0,0,0,776,1775.3c6,13.08,17.23,24.65,31.75,27.78a33.31,33.31,0,0,0,27.91-6.79,44.61,44.61,0,0,0,7.31-7.29,68.16,68.16,0,0,0,9.69-17.09,108.64,108.64,0,0,0,5.63-19.28l7.74-55.7c3.56,2.39,8.37,2.47,12.48,1.56a41.35,41.35,0,0,0,13.9-5.74,15.63,15.63,0,0,0,3.59-3.19,30.08,30.08,0,0,0,4.15-7.48,49.81,49.81,0,0,0,2.32-7.45,52.86,52.86,0,0,0,1.28-15.1,39.12,39.12,0,0,0-3.09-13.13,30.38,30.38,0,0,0-9.57-12.21l-.21-.15c-3-2-14.27-8.84-18.25-11.25l14.84-116.65,46.67-24.09A129,129,0,0,0,952,1468.43a91.09,91.09,0,0,0,16.5-19.79c9.74-15.84,12.66-33.74,10.52-51.86-2.09-17.64-10.26-32.65-22-45.52A159.17,159.17,0,0,0,936.89,1333q-5.58-4.31-11.39-8.32-6.4-4.44-12.94-8.69L902,1310l13.78-137.36a114.81,114.81,0,0,0,14.17-2.14l2.11,10,32.54.72,1.29-.23Z"/><path class="cls-5" d="M762.66,1103.76l-.73-6.47L743,1098.5l-25.69,17.73,19.22-21.44-8.69-8.11a19.23,19.23,0,0,1-24-9.57l-13.32.75-61.08,48.05,72,28.69Z"/><path class="cls-5" d="M683.7,1074.73l-14.1-11.88a309.19,309.19,0,0,1-80,48.52,289.8,289.8,0,0,1,58.65-41.17l-.58-3.24c-7,1.69-13.93.58-20.88-1.31-9.95,11.19-79.38,40.49-93.82,45.75-14.13,12.18,22,52.49,85.51,9.78Z"/><path class="cls-5" d="M618.22,1066.23c-7.14-8.82-6.79-15.62-6.05-24.72-33.61,14.8-66.2,26.8-100.74,39.26,29-14.44,53.87-25.76,83.8-38.09l-2.6-2.16a148.72,148.72,0,0,0-22.48-4.73l-122.74,44.55c-18.2,7.88,15.6,47.43,84,26.53C562.56,1095.13,588.91,1082.09,618.22,1066.23Z"/><path class="cls-5" d="M563.47,1030.7l1.85-15.72-33.31-.76c-37.21,13.3-64.48,22.7-103.43,29.37a651.87,651.87,0,0,0,98.62-32.85l-15-4.2A690.33,690.33,0,0,1,374.46,1036c-15.33,2.07,17.39,59.11,86.69,32.4Z"/><path class="cls-5" d="M636.42,977.68l-9.21-14.74A145.65,145.65,0,0,1,569.87,982a235.84,235.84,0,0,0,53.94-24.88l-4-10.65L516.85,984.06c2.71,24.55,20.13,31.67,57.7,23.6Z"/><path class="cls-5" d="M667.5,1009l-14.79-11.25c-13.34,7.18-27.12,13-45.89,19.41,15.51-8.32,29.37-15.93,43-23.61l-11.58-11.91-63,31.37c-11.65,22.2,25.12,32.91,60.42,14Z"/><path class="cls-5" d="M719.5,1026.21,698,1020.77a196.49,196.49,0,0,1-36.44,21.41,94.16,94.16,0,0,0,29.28-22.56l-16.66-6.76-48.6,25.41c-18.46,12.9-4.7,42,58,14.33Z"/><path class="cls-5" d="M750.42,1030l-11.43-.87-27.8,26.71,24.37-27-11.4-1.49-34.26,27.94c-11.79,11.17,2.33,23.41,17.91,14.72Z"/><path class="cls-5" d="M508.91,1000.16l2.58-19-34.19-2.66C430,996.18,387,1003.35,336.55,1002c47.29-2.24,87.05-9.75,131.91-24.9-13.45-12-25.38-23.46-40-38.59-69.68,7.83-129.3,8.17-199.07,1.15,60.11,2.2,111.1-.93,170.49-10.47l-18.74-21.71c-73.31,3.84-135.34,4.63-208.72,2.66-9,5.6,34.08,65.69,76.72,64.48,57.79,4.46,117.07,5.89,174.85,1.3-47,10.32-92.12,12.43-148.52,6.92,18.71,40.56,60.19,53.67,135.85,43Z"/><path class="cls-5" d="M603,898.82l-35.83-13.73a676.35,676.35,0,0,0-100.21,23.43,604.39,604.39,0,0,1,91.29-32.68l-10.08-9.35C491,881.47,442.49,893,384.74,905.38c16,25.13,46.87,35.55,103.14,25.43Z"/><path class="cls-5" d="M615.14,940.34l-9.93-37.22c-55.47,22.78-105.56,34.45-165.38,38.54,17.58,29.88,46.48,40.14,90.44,32.12Z"/><path class="cls-5" d="M757.34,1061.33l-1.29-13-17.95,15.18,16.7-20.66-.87-13.28c-2.92,4.09-44,42.09-44,42.09-6,5.65,8.41,15.19,14.24,12Z"/><path class="cls-5" d="M760.24,1087.25,758,1065.53l-20.51,16.29c-5.34,6,4.87,16.65,13,12.31Z"/><path class="cls-5" d="M557.63,864.38l45.41-19a245.89,245.89,0,0,0-.21,45.48A95.16,95.16,0,0,1,557.63,864.38Z"/><path class="cls-5" d="M685.36,843.34c2.14,47.87,8.75,79.33,29.43,93.19l15.07-4.07C734.93,883.85,720.4,858.58,685.36,843.34Z"/><path class="cls-5" d="M937.51,1174l26.58.59,80.41-31.27-32.34-29.5C992.62,1138.9,966.38,1160.56,937.51,1174Z"/><path class="cls-5" d="M1021.37,1093.46l-6.3,17,33,28.74c59,48.71,98.93,12.12,86.06-1.38-31.42-19-57.82-35.2-88.91-54.7-6.73,1.14-13.38,1.59-19.85-.38l-1.22,3.3a289.45,289.45,0,0,1,53.62,46.22A308.29,308.29,0,0,1,1021.37,1093.46Z"/><path class="cls-5" d="M1049.23,1082.49c29.58,16.18,58.55,32.76,86.93,51,66,27.49,103.49-8.57,86.15-18.2l-117.8-56.32a20.81,20.81,0,0,1-18.41,7.85l-15.08-2.56c28.58,15.2,60.11,28,87.53,45.21-33.16-15.77-68.19-29.65-100.19-47.66C1060.84,1072.45,1059.84,1076,1049.23,1082.49Z"/><path class="cls-5" d="M1107.89,1056.59,1209.81,1102c66.36,33.35,104.49-20.22,89.44-23.78A690,690,0,0,1,1165,1035.48l-15.29,2.71a652,652,0,0,0,94.94,42.33c-38.12-10.44-64.33-22.46-100.07-39.33l-29.32-4.32A65.33,65.33,0,0,1,1107.89,1056.59Z"/><path class="cls-5" d="M1011.68,958.79l99.33,71.49c21.57,11.08,46.5,6.54,51.6-17.63l-120-66.73L1032,954.31c16.67,12.67,58.86,42.79,78.06,51.13-20.87-4.67-64.67-36.81-82.11-49.2Z"/><path class="cls-5" d="M1028.22,1080.26c27.44,4.61,33.48-13.53,20.92-24.28l-17-11.09C1031.32,1055.23,1033.1,1065.92,1028.22,1080.26Z"/><path class="cls-5" d="M1168.93,1029.45l94.66,35c74.25,18.06,116.81,9.06,139.4-29.48-56.67,0-101.38-6.52-147.14-21.39,57.06,10.21,116.19,14.58,174.15,15.78,42.31,5.38,91-50.22,82.64-56.68-73.22-5.2-134.88-12-207.46-23l-20.77,19.77c58.17,15.3,108.61,23.39,168.65,27.07-70.13.18-129.42-6-198-20.58-16,13.62-29,23.9-43.6,34.5,43.17,19.45,82,30.8,128.85,37.66-50.36-3.54-92.46-14.88-137.79-37.11l-34.29-.69Z"/><path class="cls-5" d="M1068.81,912.52l127.82,50c55,15.57,86.73,8.21,105.14-15.23-56.27-17.94-107-34.42-162.41-54.91l-10.43,8c31.87,12.19,61.07,25.11,90.72,42a765.17,765.17,0,0,0-103.51-35.63Z"/><path class="cls-5" d="M1055.34,922.61c-1.26,3.08,93.4,45.33,111,52-21.46-2.88-113.5-46.87-114-45.73-2.07,5.06-7.42,14.84-7.42,14.84l105.28,57.43c43,12.27,72.73,4.87,93.15-23.14-59.14-9.92-133.72-38.64-186.7-66.73A20.76,20.76,0,0,1,1055.34,922.61Z"/><path class="cls-5" d="M993.66,972.82l7-18.22a43.65,43.65,0,0,0,50.89-35,41.53,41.53,0,0,0,.44-13c30.47,7.74,59.58,2.19,85.06-16.22,0,0-85.26-48.17-128.37-34.25-36.36,11.74-72.26,50-42.3,102.86Z"/><path class="cls-5" d="M1032.31,1040.72l23.57,15.76c36.61,11.7,50.3,5,55.39-19.19l-107.13-79.78-6.37,18.25c16.67,12.66,59.74,47.34,72.61,58-32.29-17.7-37.06-24-54.5-36.43A93.19,93.19,0,0,1,1032.31,1040.72Z"/><path class="cls-6" d="M661.41,632.68l1.78,23c.85-10.68,3.76-11.44,3.31-21.2-.6-13.16,5.46-75.61,1.71-66-3.48,9-3.92,11.68-5.58-1.06C658.85,591.76,664.33,612.65,661.41,632.68Z"/><path class="cls-7" d="M909,1321.6c27.8,18.23,59.26,40.3,63.42,76,3.78,32.38-9.77,58.33-41.77,78.76l-49.2,25.39,8.89-71.37c64.74-32.36-21.52-53.82-111.61-82.3-37.15-14.23-73.4-39.44-85.54-79.53-9.92-32.74-5.7-66.83,14-95.07-4.16-2,39.91-48.84,59.61-55.1.58,15.82,10.35,84.47,11.18,100.67-7.56-2.18-18.87,12.6-1.18,28.8Z"/><path class="cls-7" d="M868.39,1689.67c2.44,6.51,19.28-.45,22.31-4.23,6.06-7.54,12.21-33.76-3.61-45.87-3.3-2.52-115-69.51-115-69.51-25.66-14.43-20.84-32.83,7-50.58,0,1.18.79-60.23,1-61.52-34.44,18.4-80.49,39.28-85.37,84.45-4.85,44.85,43,70.71,79.42,82.51C853.45,1650.64,859.81,1666.78,868.39,1689.67Z"/><path class="cls-8" d="M748.68,943.84l7.8-198.3c-11.72-30.45-14.35-58.11-8.08-90.13,1.57-14,30.93-50.48,55.32-58.56C944.47,561,993,640.19,925,952.47Z"/><polygon class="cls-8" points="755.3 1023.53 923.2 1031.75 894.92 1313.66 781.88 1250.74 755.3 1023.53"/><path class="cls-8" d="M780.5,1348.71c0,81.33-.48,143.71-2.4,225l87.32,52.48,30.15-237C871.08,1375.91,828.14,1363.48,780.5,1348.71Z"/><path class="cls-8" d="M776.8,1625.76l-.42,114.93c-3.66,56.69,59.69,87.13,75.29,10.74l10.54-75.83C852.12,1653.12,813.79,1638.22,776.8,1625.76Z"/><path class="cls-9" d="M805.94,946.64c1.25-17.13-9.4-32.13-8.27-48.62.67-9.82,15.59-7.23,17.19-24.89,1.24-13.67-27-1.58-33-51.31-3.79-31.25,14.47-5.51,14.37-21.49-.15-23.11-26.52-2.18-24.42-26.93,3.1-36.59,18-22.47,15.55-27.63-33.38-70.35-52.65-99.58,37-140.18,31.29,1.22,65.69-4.18,62.2,16.35-7.47,44-32.63,33-31.49,63.25.77,20.45,41.32,9.85,42.92,29.61,1.66,20.49-31.72,17.39-36.17,32-6.11,20,40.55,5.54,33.16,47.77-3.87,22.11-21.36,67.7-36.53,75.42-25,12.74-22.13,33,7.36,49.17L867,949.63Z"/><polygon class="cls-9" points="810.03 1026.21 810.47 1266.67 861.19 1294.82 875.54 1029.42 810.03 1026.21"/><polygon class="cls-9" points="805.41 1356.34 801.18 1587.69 833.95 1607.25 848.88 1370.07 805.41 1356.34"/><path class="cls-9" d="M804.17,1635.38,801,1736.82c-.44,45.24,23.12,53.49,22.46,12.64L832,1647.84Z"/><path class="cls-3" d="M341.68,1278.88c10.73-30.49-1.31-61.4-5.68-92.21-10.52,11.28-23.43,28.48-20,45C319.59,1249,331,1264,341.68,1278.88ZM1321,1307c2-1.37,2.47-3.3,3.46-5,8.33-13.86,20.1-27.57,22.09-44.14.92-7.75-3.85-15.28-6-22.24-1.26-4-5.14-8.57-5.61-11.9-.36-2.46-4.79-9.2-6.23-6.39-6.6,12.89-12.07,27.82-14.33,42.54-2.12,13.78-6.45,28.66-.09,41.95C1315.79,1305.11,1317.5,1309.42,1321,1307ZM311.21,1205.22c27.56-26.06,15.39-79.65-20.84-91.6-3.49,20.91-3.42,40.46-4.77,61.37C293.29,1185.68,300.51,1197.31,311.21,1205.22Zm1038.54,31.31c10.22-4.89,17.85-18.33,26.33-26.82.35-20.6.74-39.69-.59-60C1339.86,1161,1328.09,1207.31,1349.75,1236.53ZM796.12,1968.17c83.36,2.59,168.29-8.28,245.22-41.45,45.29-19.52,86.1-49.37,117.15-87.9,28.87-35.81,47.14-78.3,69.57-118.17,21.69-38.57,42.81-77.5,59-118.91,15.1-38.54,9.94-82,25.53-120.61,17.09-42.33,46.45-76.46,66.06-118.2,18.86-40.11,12.85-87.71-17.85-121.78,11.44-8.47,12.47-13.82,19.94-20.49,4.86-4.34,5.5-9.87,5.41-15.57-.36-23.61,1.89-47.49.8-70.62-40.21,5.93-55.3,44-67.61,76.58-12,31.71-26.66,66.14-11.93,101.57-50.47,46.57-76.25,109.69-98.74,172.2-22,61-48.53,120.85-74.9,179.91-28.73,64.35-69,128.5-135.71,157-59.51,25.43-120.63,40.9-184.46,39.77-62.89-1.11-124.17-17.4-180.33-44.46-32.59-15.7-63.73-37.1-82.33-68.38a766.17,766.17,0,0,1-47-93.41c-25.7-60.76-51.74-122-66-186.32-7.06-31.85-12.65-64.72-29.23-93.14-18.41-31.57-38.6-61.14-58.85-92,11.44-19.11,6.26-39.32,3.18-59.42-3.13-20.42-5.6-40.68-8.78-61.3-.71-4.59-1.53-9.15-6.85-8.48-3.23.41-2.27-4.16-2.95-6.93-6.22-25.7-28.51-44.3-54.27-50.47-3.68,24.56-2.9,49.75-5.32,74.8a19.41,19.41,0,0,0,5.6,15.8c5.88,6,8.67,10.84,16.06,18.92-20.65,32.67-45.52,75.68-33,116.55,6.78,22.15,18.14,41.5,27.71,62.26,9.48,20.59,16.88,41.61,25.11,62.69,7.68,19.66,13.92,39.59,13.76,61-.16,21.83,11.08,40.92,17.13,61.45A1036.11,1036.11,0,0,0,393,1695c18.67,42.49,37.51,85,62.76,124.5s62,68.91,102.87,91.44C630.88,1950.71,714.15,1965.63,796.12,1968.17Zm562.17-711.89a99,99,0,0,1,9.94,101.66q-7.43,15.55-16.36,30.31-8.31,13.73-16.9,27.27-9.73,15.27-18.57,31.08c-19.91,35.35-24.15,57.35-28.68,97.1-2,17.46-5.51,38.65-11.42,53.83C1260.56,1637.9,1238.71,1678,1218,1715q-9.67,17.41-18.83,35.13-7.61,14.45-15.36,28.8a363.79,363.79,0,0,1-34.32,52.67,294.05,294.05,0,0,1-112.63,84.47,495.77,495.77,0,0,1-123.34,34.25,661.09,661.09,0,0,1-117,6.29h-.13c-102-2.69-211.48-27.24-290-96.11a227.27,227.27,0,0,1-40.78-47.26c-24.94-39-43.06-80.06-61.93-123a1027.61,1027.61,0,0,1-45.27-123q-3-9.88-6.86-19.5c-4.87-12.7-9.62-24.67-9.77-38.71-.25-23.67-5.14-41.11-14.55-65.11-8.24-21-16-43.33-25.42-63.39-9.19-19.53-21-41-27.12-60.75a69.54,69.54,0,0,1-2.39-28.18c3-24.56,15.76-49.38,29.16-71.05l6.66-11a64.48,64.48,0,0,0,8.61,41.1s19.77,33.1,19.57,33.45L371.7,1338q14,21.43,27,43.53a180.73,180.73,0,0,1,17.61,44.58q5.65,22.45,10.33,45.14c13.17,62.15,44.3,135.92,66.69,188.52A777,777,0,0,0,541,1754.58c20,33.44,52.46,56.3,87.3,72.94a471.16,471.16,0,0,0,94.7,33.94,410.06,410.06,0,0,0,90.47,11.65c65.73,1,128.06-14.3,189.22-40.72,70.1-30.28,111.63-95.59,141.7-162.93,26.41-59.16,53.64-120.51,75.22-180.72q9.2-26,19.79-51.43c12.27-29.43,28.39-59.82,47.19-84.55,11.21-14.74,16.36-19.86,30.35-32.82C1329.28,1313.32,1350.81,1281.61,1358.29,1256.28Z"/><path class="cls-10" d="M999.36,1917.65l-.11,0a.15.15,0,0,1,0,.1s0,0-.07.06h-.09a.06.06,0,0,1-.05,0,0,0,0,0,1,0,0s0,0,0,0l.09-.06a.57.57,0,0,0,.11-.1.15.15,0,0,0,0-.13.14.14,0,0,0,0-.08.12.12,0,0,0-.09,0,.17.17,0,0,0-.12,0,.24.24,0,0,0-.15.1.17.17,0,0,0,0,.14l.12,0s0-.06,0-.07a.1.1,0,0,1,.06,0h.09l0,0a.09.09,0,0,1,0,0l-.09.07-.11.08a.35.35,0,0,0-.05.08.34.34,0,0,0,0,.1.18.18,0,0,0,.06.09.17.17,0,0,0,.1,0,.21.21,0,0,0,.13,0,.22.22,0,0,0,.15-.1A.2.2,0,0,0,999.36,1917.65Z"/><path class="cls-10" d="M998.79,1917.73a.47.47,0,0,0-.08-.14l-.08-.06-.09,0-.13,0a.3.3,0,0,0-.18.15.33.33,0,0,0,0,.24.32.32,0,0,0,.15.2.3.3,0,0,0,.23,0,.3.3,0,0,0,.18-.39Zm-.12,0a.22.22,0,0,1,0,.16.18.18,0,0,1-.1.09.2.2,0,0,1-.13,0,.24.24,0,0,1-.09-.14.23.23,0,0,1,0-.16.18.18,0,0,1,.1-.09.19.19,0,0,1,.13,0A.26.26,0,0,1,998.67,1917.77Z"/><path class="cls-10" d="M997.79,1918.14l-.1.08a.36.36,0,0,0,.14.11.3.3,0,0,0,.16,0,.24.24,0,0,0,.17-.14.33.33,0,0,0,0-.24.35.35,0,0,0-.15-.2.28.28,0,0,0-.22,0,.23.23,0,0,0-.15.12.21.21,0,0,0,0,.12h.13a.11.11,0,0,1,0-.08s0,0,.07-.05a.13.13,0,0,1,.12,0,.29.29,0,0,1,.09.13.26.26,0,0,1,0,.17.14.14,0,0,1-.09.08h-.09S997.82,1918.18,997.79,1918.14Z"/><rect class="cls-11" x="997.44" y="1917.85" width="0.12" height="0.61" transform="translate(-550.84 409.19) rotate(-18.26)"/><polygon class="cls-10" points="997.43 1918.5 997.24 1917.92 996.81 1918.06 996.84 1918.16 997.15 1918.06 997.2 1918.18 996.91 1918.28 996.94 1918.38 997.23 1918.28 997.28 1918.44 996.96 1918.55 996.99 1918.64 997.43 1918.5"/><path class="cls-10" d="M996.7,1918.1l-.21.07-.11,0a.31.31,0,0,0-.07.09.36.36,0,0,0,0,.11.78.78,0,0,0,0,.14l.06.12a.39.39,0,0,0,.1.08l.09,0,.11,0,.22-.08Zm-.08.13.12.39-.09,0-.07,0h-.05s0,0,0,0l-.05-.1a.65.65,0,0,1,0-.11.14.14,0,0,1,0-.07s0,0,0,0l.09,0Z"/><path class="cls-10" d="M995.79,1919l.12,0v-.14l.23-.08.09.12.13,0-.42-.51-.12,0Zm.14-.3v-.24l.14.19Z"/><path class="cls-10" d="M995.54,1918.48l-.22.07-.1,0a.18.18,0,0,0-.07.08.27.27,0,0,0,0,.12.44.44,0,0,0,0,.14.23.23,0,0,0,.06.12.34.34,0,0,0,.09.08l.1,0,.1,0,.22-.07Zm-.09.13.13.39-.09,0-.07,0h-.06l-.05,0a.66.66,0,0,1,0-.11.22.22,0,0,1,0-.1.15.15,0,0,1,0-.07.1.1,0,0,1,0,0l.09,0Z"/><path class="cls-3" d="M309.78,1328.19l4.56,7.43a10.63,10.63,0,0,0-4.38,5.67,9.6,9.6,0,0,0,1,6.71q1.89,3.88,4.49,5a5.42,5.42,0,0,0,4.79.1,4,4,0,0,0,2-2,7.4,7.4,0,0,0,.32-3.73c-.14-1.1-.6-3.52-1.4-7.26q-1.54-7.23-.48-11a11.61,11.61,0,0,1,12.73-8.6,12,12,0,0,1,6.44,3,22.14,22.14,0,0,1,5.19,7.15q3.64,7.47,2.2,12.85a12.87,12.87,0,0,1-6.81,8.24l-4.26-7.85a7.56,7.56,0,0,0,3.32-4.36q.52-2.34-1.13-5.73a10.14,10.14,0,0,0-4.1-4.77,3.23,3.23,0,0,0-3.09-.08,3.4,3.4,0,0,0-1.83,2.37c-.35,1.43,0,4.31.94,8.66a43.45,43.45,0,0,1,1.36,10,12.51,12.51,0,0,1-1.9,6.36,13.25,13.25,0,0,1-5.56,4.67,13,13,0,0,1-7.32,1.22,12.67,12.67,0,0,1-7-3.21,25.06,25.06,0,0,1-5.66-7.94q-3.67-7.53-2.16-13.26T309.78,1328.19Z"/><path class="cls-3" d="M335.51,1363.37a28.28,28.28,0,0,1,11.23-2.51,20.9,20.9,0,0,1,7.18,1.46,17.18,17.18,0,0,1,5.87,3.74,24.33,24.33,0,0,1,5.29,8.11q3.76,9,.43,16.76t-13.28,11.91q-9.87,4.13-17.69,1.08t-11.58-12q-3.79-9.09-.49-16.78T335.51,1363.37Zm3.82,8.37q-6.93,2.9-9.16,7.58a11.32,11.32,0,0,0-.18,9.62,11.17,11.17,0,0,0,6.92,6.59q4.86,1.68,12-1.29t9.17-7.44a12.34,12.34,0,0,0-6.88-16.35Q346.36,1368.8,339.33,1371.74Z"/><path class="cls-3" d="M358.76,1439l.44,9.07q-7.49.65-12.38-2.47t-7.37-9.79a19,19,0,0,1,.61-15.66q3.68-7.39,13.45-11,10.35-3.84,18.05-.61t10.93,11.92q2.81,7.61.08,14a17.52,17.52,0,0,1-6.06,7.06l-5.05-7.54a9.14,9.14,0,0,0,3.72-11.31,10.06,10.06,0,0,0-6.08-6.25q-4.37-1.65-11.77,1.1-7.86,2.91-10.15,7a9.79,9.79,0,0,0-.61,8.58,8.94,8.94,0,0,0,4.24,5C352.82,1439.06,355.47,1439.39,358.76,1439Z"/><rect class="cls-12" x="349.65" y="1453.96" width="44.19" height="8.92" transform="translate(-351.21 138.38) rotate(-14.41)"/><polygon class="cls-3" points="352.35 1485.56 394.84 1473.45 403.82 1504.96 396.63 1507.01 390.1 1484.08 380.68 1486.77 386.75 1508.1 379.59 1510.14 373.51 1488.8 361.95 1492.1 368.71 1515.84 361.55 1517.88 352.35 1485.56"/><path class="cls-3" d="M405.93,1515.4l3.55,15.92a31.88,31.88,0,0,1,1,8.39,14.77,14.77,0,0,1-2.52,7.39,19.16,19.16,0,0,1-6.07,5.67,32.53,32.53,0,0,1-9.88,3.69,29.05,29.05,0,0,1-9.47.72,19.46,19.46,0,0,1-8.65-2.91,15.77,15.77,0,0,1-4.81-5.36,27.14,27.14,0,0,1-2.63-7.5L362.81,1525Zm-5.35,10.34L372,1532.11l1.45,6.5a25.22,25.22,0,0,0,1.59,5.18,8.25,8.25,0,0,0,2.58,3.11,9.32,9.32,0,0,0,4.67,1.35,28.56,28.56,0,0,0,8.1-.88,26.62,26.62,0,0,0,7.48-2.59,10.13,10.13,0,0,0,3.62-3.4,8.47,8.47,0,0,0,1.13-4.49,40,40,0,0,0-1.18-7.24Z"/><path class="cls-3" d="M387.15,1605.91l-3.19-9.16,8.21-7-5.8-16.68-10.68-.14-3.11-8.94,47.39,1.73,3.1,8.91Zm11.11-21.26,13.49-11.14-17.45-.24Z"/><path class="cls-3" d="M430.15,1594.74,435.9,1610a31.48,31.48,0,0,1,2.17,8.16,14.79,14.79,0,0,1-1.45,7.67,19.22,19.22,0,0,1-5.22,6.47,32.44,32.44,0,0,1-9.26,5,29.28,29.28,0,0,1-9.28,2.05,19.42,19.42,0,0,1-9-1.68,15.75,15.75,0,0,1-5.51-4.62,27,27,0,0,1-3.66-7.06l-5.92-15.71Zm-3.85,11L398.91,1616l2.35,6.23a24.16,24.16,0,0,0,2.3,4.9,8.29,8.29,0,0,0,3,2.73,9.51,9.51,0,0,0,4.82.68,28.93,28.93,0,0,0,7.89-2,26.34,26.34,0,0,0,7-3.62,10,10,0,0,0,3.11-3.88,8.43,8.43,0,0,0,.49-4.59,39.36,39.36,0,0,0-2.19-7Z"/><path class="cls-3" d="M411.06,1667.92l40.6-17.43,5.65,13.15q3.21,7.48,3.57,10a11.55,11.55,0,0,1-1.46,7.55,13.74,13.74,0,0,1-6.9,5.75,14.49,14.49,0,0,1-6.87,1.35,12.3,12.3,0,0,1-5.48-1.73,12.86,12.86,0,0,1-3.75-3.43,50.49,50.49,0,0,1-4.23-8.25l-2.3-5.35-15.31,6.58Zm37.25-6.29-11.52,4.95,1.93,4.49q2.07,4.85,3.42,6.21a5.79,5.79,0,0,0,6.64,1.27,5.7,5.7,0,0,0,3.1-2.87,6.16,6.16,0,0,0,.39-4.07,43.69,43.69,0,0,0-2.26-6Z"/><path class="cls-3" d="M442.46,1737.62l-4.12-8.79,7.45-7.75-7.5-16-10.64,1-4-8.57,47.31-3.17,4,8.54Zm8.85-22.29,12.26-12.47-17.37,1.55Z"/><polygon class="cls-3" points="444.66 1741.91 483.93 1721.65 487.91 1729.36 469.98 1758.97 496.2 1745.43 500 1752.8 460.74 1773.06 456.63 1765.11 474.07 1736.07 448.46 1749.28 444.66 1741.91"/><path class="cls-3" d="M488.61,1813.73l-5.61-7.92,5.95-9-10.22-14.41-10.3,2.84-5.47-7.72L509,1766l5.46,7.69Zm4.76-23.51,9.85-14.46-16.83,4.62Z"/><polygon class="cls-3" points="491.66 1817.3 523.28 1786.44 532.61 1795.99 516.64 1822.78 543.75 1807.4 553.09 1816.98 521.47 1847.84 515.68 1841.91 540.58 1817.62 509.56 1835.63 503.56 1829.48 522.34 1798.94 497.45 1823.23 491.66 1817.3"/><polygon class="cls-3" points="528.43 1853.44 555.06 1818.19 581.2 1837.94 576.7 1843.9 557.67 1829.53 551.77 1837.35 569.47 1850.72 564.98 1856.66 547.28 1843.29 540.03 1852.88 559.73 1867.76 555.24 1873.7 528.43 1853.44"/><path class="cls-3" d="M561.69,1877.92l21.48-38.61,7.59,4.22,1.46,34.57,14.34-25.78,7.24,4L592.32,1895l-7.82-4.35-1.56-33.84-14,25.18Zm32.36-35.35-3.37-1.88c.2-.41.37-.73.5-1a7,7,0,0,1,3.71-3.51,5.1,5.1,0,0,1,4.28.43,8.19,8.19,0,0,1,1.6,1.15,26,26,0,0,1,2.25,2.74,10.08,10.08,0,0,0,2.76,2.76,2.24,2.24,0,0,0,1.7.25,3.19,3.19,0,0,0,1.71-1.36l3.42,1.91c-1.33,2.36-2.72,3.81-4.15,4.34a4.81,4.81,0,0,1-4.21-.34,9.2,9.2,0,0,1-1.66-1.17q-.52-.5-2.43-2.76a13.32,13.32,0,0,0-3-2.89,1.94,1.94,0,0,0-1.6-.21A3,3,0,0,0,594.05,1842.57Z"/><path class="cls-3" d="M638.17,1913.12l-9.07-3.44-.05-10.75-16.52-6.27-7,8.09-8.84-3.35,31.76-35.21,8.82,3.34ZM629,1891l.12-17.49-11.39,13.21Z"/><path class="cls-3" d="M669.33,1875.35l15.89,3.65a31.92,31.92,0,0,1,8,2.7,14.85,14.85,0,0,1,5.58,5.46,19.38,19.38,0,0,1,2.51,7.92,32.44,32.44,0,0,1-.93,10.5,28.85,28.85,0,0,1-3.42,8.86,19.51,19.51,0,0,1-6.36,6.55,15.85,15.85,0,0,1-6.9,2,27.2,27.2,0,0,1-7.91-.86l-16.36-3.76Zm7,9.28-6.55,28.52,6.49,1.49a24.1,24.1,0,0,0,5.36.8,8.22,8.22,0,0,0,3.92-1,9.33,9.33,0,0,0,3.23-3.63,28.72,28.72,0,0,0,2.69-7.68,26.19,26.19,0,0,0,.88-7.87,10.1,10.1,0,0,0-1.51-4.74,8.44,8.44,0,0,0-3.56-3,39.5,39.5,0,0,0-7-2Z"/><polygon class="cls-3" points="703 1928.06 709.98 1884.43 742.33 1889.6 741.15 1896.98 717.6 1893.22 716.06 1902.89 737.96 1906.39 736.79 1913.74 714.88 1910.24 712.98 1922.12 737.36 1926.01 736.18 1933.36 703 1928.06"/><path class="cls-3" d="M760.21,1914.26a28,28,0,0,1,2.66-11.2,20.78,20.78,0,0,1,4.45-5.81,17.32,17.32,0,0,1,5.93-3.65,24.13,24.13,0,0,1,9.61-1.2q9.75.55,15.26,6.94T803,1916.5q-.62,10.68-6.76,16.38T780.37,1938q-9.84-.55-15.3-6.89T760.21,1914.26Zm9.19.22q-.42,7.5,2.81,11.56a11.92,11.92,0,0,0,17.53,1c2.42-2.42,3.78-6.2,4.07-11.31s-.6-8.89-2.67-11.51a12.36,12.36,0,0,0-17.72-1Q769.84,1906.88,769.4,1914.48Z"/><path class="cls-3" d="M807.88,1894.3l17.66-.35a50.73,50.73,0,0,1,7.83.28,11.18,11.18,0,0,1,8.11,5.35,10.06,10.06,0,0,1,1.46,5.14,10.48,10.48,0,0,1-6,9.71,11.64,11.64,0,0,1,6.29,3.88,10.67,10.67,0,0,1,2.3,6.62,13.22,13.22,0,0,1-1.28,5.89,11.9,11.9,0,0,1-3.74,4.63,12.7,12.7,0,0,1-5.94,2.21c-1.48.19-5.07.36-10.75.52l-15,.3Zm9.06,7.17.21,10.22,5.84-.12q5.22-.1,6.48-.28a5.91,5.91,0,0,0,3.57-1.65,4.65,4.65,0,0,0,1.24-3.48,4.88,4.88,0,0,0-1.19-3.31,5.2,5.2,0,0,0-3.4-1.48q-1.32-.12-7.62,0Zm.36,17.57.23,11.81,8.26-.16a41.11,41.11,0,0,0,6.11-.39,5.58,5.58,0,0,0,3.21-1.83,5.46,5.46,0,0,0,1.17-3.78,5.79,5.79,0,0,0-1-3.35,5.44,5.44,0,0,0-2.83-2q-1.83-.58-7.92-.47Z"/><path class="cls-3" d="M849.8,1923.06l8.57-1.6q1.15,4.29,3.72,6.12a9.56,9.56,0,0,0,6.62,1.48c2.87-.25,5-1,6.32-2.38a5.42,5.42,0,0,0,1.8-4.43,4,4,0,0,0-1.14-2.58,7.39,7.39,0,0,0-3.37-1.63q-1.61-.4-7.28-1.3-7.31-1.15-10.41-3.48a11.51,11.51,0,0,1-4.82-8.51,11.35,11.35,0,0,1,1.35-6.46,12.06,12.06,0,0,1,5.11-4.93,22.19,22.19,0,0,1,8.53-2.29q8.3-.72,12.79,2.55a12.88,12.88,0,0,1,5.25,9.32L874,1904.1a7.58,7.58,0,0,0-2.87-4.67,9,9,0,0,0-5.76-1,10.17,10.17,0,0,0-5.93,2.12,3.21,3.21,0,0,0-1.17,2.85,3.42,3.42,0,0,0,1.55,2.56c1.21.84,4,1.59,8.43,2.23a43.17,43.17,0,0,1,9.87,2.33,12.4,12.4,0,0,1,5.25,4,13.89,13.89,0,0,1,.88,14.13,12.65,12.65,0,0,1-5.52,5.43,25,25,0,0,1-9.43,2.44q-8.35.72-13.16-2.74T849.8,1923.06Z"/><polygon class="cls-3" points="904.13 1931.86 898.81 1895.54 885.84 1897.43 884.76 1890.04 919.5 1884.96 920.58 1892.35 907.64 1894.24 912.95 1930.57 904.13 1931.86"/><polygon class="cls-3" points="931.57 1927.63 922.63 1884.36 954.72 1877.73 956.23 1885.05 932.88 1889.88 934.86 1899.47 956.59 1894.98 958.09 1902.27 936.37 1906.76 938.8 1918.54 962.98 1913.54 964.48 1920.84 931.57 1927.63"/><polygon class="cls-3" points="981.37 1916.18 971.01 1880.96 958.43 1884.66 956.32 1877.49 990 1867.58 992.11 1874.75 979.56 1878.44 989.93 1913.66 981.37 1916.18"/><path class="cls-3" d="M1008,1908.11l-16.71-40.91,17.38-7.1q6.55-2.68,10-2.79a10.09,10.09,0,0,1,6.36,2,12.76,12.76,0,0,1,4.42,5.71,11.85,11.85,0,0,1,.4,8.71q-1.48,4.11-6.55,7.09a20.75,20.75,0,0,1,5.82,1.62,50.18,50.18,0,0,1,7.42,4.72l8.25,5.94-9.87,4-9.61-6.46a62,62,0,0,0-6.81-4.24,6.84,6.84,0,0,0-3.18-.69,14.92,14.92,0,0,0-4.35,1.24l-1.67.69,7,17.07Zm-1.39-27,6.11-2.5c4-1.62,6.37-2.8,7.22-3.53a4.79,4.79,0,0,0,1.61-2.68,5.79,5.79,0,0,0-.42-3.41,5.3,5.3,0,0,0-2.46-2.89,5.53,5.53,0,0,0-3.77-.33c-.71.18-2.73,1-6.08,2.32l-6.45,2.64Z"/><rect class="cls-12" x="1037.99" y="1846.72" width="8.92" height="44.19" transform="translate(-739.89 684.57) rotate(-27.25)"/><path class="cls-3" d="M1079.18,1853.74l8.75-2.38q2.25,7.16.27,12.61a18.83,18.83,0,0,1-8,9.32,19,19,0,0,1-15.41,2.8q-8-2-13.68-10.74-6-9.27-4.51-17.49t9.27-13.25q6.83-4.39,13.67-3.12a17.49,17.49,0,0,1,8.21,4.38l-6.27,6.57a9.12,9.12,0,0,0-11.85-1.18,10,10,0,0,0-4.78,7.29q-.66,4.62,3.62,11.25,4.54,7,9,8.39a9.74,9.74,0,0,0,8.51-1.26,8.93,8.93,0,0,0,3.92-5.22C1080.56,1859.52,1080.31,1856.86,1079.18,1853.74Z"/><rect class="cls-12" x="1085.9" y="1815.66" width="8.92" height="44.19" transform="translate(-913.54 1095.72) rotate(-39)"/><path class="cls-3" d="M1142.44,1818.49l-6.79,6.94-9.87-4.27-12.36,12.62,4.62,9.63-6.62,6.76L1091.89,1807l6.6-6.74Zm-24-.49-16-7.12,7.54,15.73Z"/><polygon class="cls-3" points="1157.65 1796.43 1141.96 1786.44 1111.68 1786.36 1117.3 1777.54 1137.63 1778.15 1128.35 1760.17 1133.87 1751.5 1146.79 1778.98 1162.42 1788.93 1157.65 1796.43"/><path class="cls-3" d="M1176.29,1730.26l-6.58-3.47,9-17,15.57,8.2a24.14,24.14,0,0,1,.44,9.42,29.41,29.41,0,0,1-3.2,10.49,24.22,24.22,0,0,1-8.2,9.34,18.57,18.57,0,0,1-11,3,26.91,26.91,0,0,1-11.62-3.19,25.5,25.5,0,0,1-9.51-8.28,19.57,19.57,0,0,1-3.33-11.33,22.83,22.83,0,0,1,3-10.39q3.83-7.27,9-9.76a15.58,15.58,0,0,1,11.22-.82l-2.67,8.61a9.38,9.38,0,0,0-6.18.71,10.65,10.65,0,0,0-4.67,4.82,12.09,12.09,0,0,0-1,10q1.67,4.79,8.12,8.19,7,3.66,12.07,2.4a11.66,11.66,0,0,0,7.75-6.27,15.42,15.42,0,0,0,1.65-5.48,19.07,19.07,0,0,0-.11-5.53l-5-2.61Z"/><rect class="cls-12" x="1181.46" y="1677.31" width="8.92" height="44.19" transform="translate(-871.99 1943.08) rotate(-61.84)"/><polygon class="cls-3" points="1211.53 1698.3 1172.91 1676.84 1177.12 1669.25 1211.7 1667.78 1185.91 1653.44 1189.93 1646.2 1228.56 1667.66 1224.21 1675.48 1190.37 1677.06 1215.56 1691.06 1211.53 1698.3"/><polygon class="cls-3" points="1233.35 1659.53 1194.23 1638.98 1209.46 1609.98 1216.08 1613.45 1204.99 1634.56 1213.67 1639.12 1223.98 1619.48 1230.57 1622.94 1220.26 1642.58 1230.9 1648.17 1242.38 1626.32 1248.97 1629.78 1233.35 1659.53"/><path class="cls-3" d="M1248.41,1590.65l5.89-6.91q5.9,4.65,7.33,10.27t-1.32,12.18a19,19,0,0,1-11.16,11q-7.74,2.88-17.35-1.17-10.17-4.27-13.58-11.9t.19-16.17q3.15-7.48,9.54-10.28a17.46,17.46,0,0,1,9.25-1l-1.49,9a9.14,9.14,0,0,0-10.45,5.7,10,10,0,0,0,.16,8.72q2.05,4.18,9.34,7.26,7.71,3.24,12.17,1.85a9.78,9.78,0,0,0,6.32-5.84,8.9,8.9,0,0,0,.29-6.51C1252.81,1594.64,1251.11,1592.59,1248.41,1590.65Z"/><path class="cls-3" d="M1247.82,1578.83a28.16,28.16,0,0,1-10.63-4.4,21.1,21.1,0,0,1-5-5.32,17.29,17.29,0,0,1-2.66-6.43,24.45,24.45,0,0,1,.34-9.68q2.09-9.54,9.27-14t17.71-2.11q10.45,2.3,15.11,9.27t2.56,16.49q-2.12,9.63-9.23,14T1247.82,1578.83Zm1.68-9q7.34,1.61,11.86-1a11.91,11.91,0,0,0,3.79-17.14q-3-4.17-10.52-5.81t-11.79.82a11.21,11.21,0,0,0-5.54,7.84,11.33,11.33,0,0,0,1.78,9.49Q1242.05,1568.15,1249.5,1569.79Z"/><polygon class="cls-3" points="1278.84 1534.41 1235.4 1528.57 1236.59 1519.73 1272.65 1524.58 1275.6 1502.59 1282.98 1503.58 1278.84 1534.41"/><path class="cls-3" d="M1262.07,1492.87a28.06,28.06,0,0,1-10.34-5.07,20.9,20.9,0,0,1-4.69-5.63,17.34,17.34,0,0,1-2.24-6.58,24.32,24.32,0,0,1,.94-9.64q2.7-9.39,10.14-13.35t17.81-1q10.29,3,14.49,10.21t1.52,16.62q-2.73,9.48-10.11,13.41T1262.07,1492.87Zm2.25-8.92q7.2,2.07,11.89-.19a11.92,11.92,0,0,0,4.87-16.87q-2.74-4.35-10.14-6.47t-11.81.07a12.36,12.36,0,0,0-4.85,17.07Q1257,1481.85,1264.32,1484Z"/><path class="cls-3" d="M1294.59,1425.51l-6.45-3.71,9.6-16.66,15.25,8.79a24,24,0,0,1,.08,9.42,29.53,29.53,0,0,1-3.59,10.37,24.22,24.22,0,0,1-8.56,9,18.48,18.48,0,0,1-11.07,2.55,26.76,26.76,0,0,1-11.49-3.63,25.48,25.48,0,0,1-9.19-8.64,19.44,19.44,0,0,1-2.89-11.44,22.8,22.8,0,0,1,3.38-10.27q4.11-7.12,9.41-9.41a15.59,15.59,0,0,1,11.23-.39l-3,8.5a9.37,9.37,0,0,0-6.2.48,10.6,10.6,0,0,0-4.85,4.63,12.09,12.09,0,0,0-1.43,9.91q1.49,4.85,7.81,8.48,6.81,3.93,12,2.87a11.69,11.69,0,0,0,8-6,15.4,15.4,0,0,0,1.85-5.42,19.17,19.17,0,0,0,.11-5.53l-4.86-2.8Z"/><rect class="cls-12" x="1302.32" y="1372.68" width="8.92" height="44.19" transform="translate(-573.55 1737.44) rotate(-57.19)"/><path class="cls-3" d="M1353.13,1361.84l-5,8.29-10.58-1.92-9.18,15.08,6.68,8.34-4.92,8.08-28.8-37.67,4.9-8.06Zm-23.47,4.94-17.17-3.32,10.9,13.62Z"/><path class="cls-8" d="M850.85,793.79c10.21,2.38,19.9-9,12.83-18.19-6.08-7.92-11.49-12.65-20.59-15.15-4.4-1.2-8.09-1.25-12.13.73-2.88,1.4-5.49,1.71-7.55,4.52-.48,15.68,13,24.72,27.44,28.09Z"/><path class="cls-8" d="M837.72,704.68c13.56-15.69-6.51-36.46-28.15-35.67-23.14.86-5.67,37.88,14.92,36.23,4.69-.38,9.93,3.26,13.23-.56Z"/><path class="cls-13" d="M770.94,1575.59c-44.63-26.69-4.77-57,8.32-59.65l.45-36.7c-2.36.73-23.16,15.24-26.86,17.84-18.34,12.85-36.4,34.65-33.24,58.35,3.3,24.68,24.28,43.52,46,54.11,37.86,18.47,80.85,27.83,115,55,4,3.16,5.61-5.79,5.4-11.26C885.56,1641.49,808.14,1597.84,770.94,1575.59Z"/><path class="cls-13" d="M886.16,1464c55.88-32.29,68.23-79.55-36-107.31-32.88-8.75-65.5-23-95.93-39-32.51-17.14-56.94-53.67-51.23-91.21,5.52-36.35,29.31-68.85,67.29-76,2.29,21,5.45,39.94,6.49,58.48-36.28,8.24-16.34,42-.86,48.21,20,8,64.73,36.23,83,47,36.3,21.5,77.95,33.73,100,74.65,3.89,7.2,7.72,16.36,7.83,24.28.85,61.29-58.07,75.23-84.22,91.22Z"/><path class="cls-13" d="M660.82,644.83c-32.76-8.61-69,39.36-71,77.52-1.94,37.19,24.33,73.56,22.17,113.47,6,41.82-1.19,82.76,16.86,118,21,44.49,60.69,65.57,123.59,69.58l181.33,8.88c20.1,7.21,34.13,37-15.23,46l-8.84,88c114.68-4,181.21-191,14.77-213.69L724,942.86c-35.77-6.12-48.68-39.72-42.71-111.23,3.33-33.11,14.56-65.41,17.52-98,3.18-35,.76-72.64-31.73-86.71C663.3,662.6,661.25,679.59,660.82,644.83ZM640.71,713c-2.34-7-6.57-10-5.37-15.74,1.14-5.49-.51-15-4.27-10.1-6.73,8.83-2.74,18.36,1.76,28,2.93,6.27,10.51,5.73,7.88-2.11Z"/><path class="cls-7" d="M707.1,1007.49l227.08,18.61c32.4,9.49,38.33,55.22-15.94,55.8l-2.51,26.5c17.19-9.58,37.2-10.3,47-19.8,35.67-34.46,17.87-74.93-28.69-85.81Z"/></svg>