<svg xmlns="http://www.w3.org/2000/svg" viewBox="0 0 231.88 289.33"><defs><style>.cls-1{fill:#fff;fill-rule:evenodd;}</style></defs><title>logo blanco vertical</title><g id="Capa_2" data-name="Capa 2"><g id="Capa_1-2" data-name="Capa 1"><path class="cls-1" d="M92.25,288.46h14.07v-.37h5.43v-.37h1.85v-.37h1.23V287h1.11v-.37h.74v-.37h.74v-.37h.74v-.37h.5v-.37h.74v-.37h.37v-.49h.74v-.37h.37v-.37h.37v-.37h.37v-.37H122v-.37h.37v-.37h.49v-.37h.37v-.37h.37v-.37H124v-.87h.37v-.37h.37v-.37h.38v-.74h.37v-.74h.37v-.37h.37v-.86h.49v-.74h.37v-.74h.37V274h.37v-.74h.37v-1.6h.37V270.2h.37v-2h.37V264h.37v-3h-.37v-4.32h-.37v-2.23h-.37v-1.6h-.37v-1.11h-.37v-.74h-.37V250h-.37v-.74h-.37v-.87h-.49v-.74h-.37v-.37h-.37v-.74h-.37v-.37h-.38v-.74h-.37v-.49H124v-.37h-.37v-.37h-.37v-.37h-.37v-.37h-.49v-.37H122v-.37h-.37v-.37h-.37v-.37h-.37v-.37h-.37v-.5h-.74v-.37h-.37v-.37h-.74V240h-.5v-.37h-.74v-.37h-.74v-.37h-.74v-.37h-1.11v-.37H113.6v-.37h-1.85v-.37H109.4v-.5H92.25Zm31.34-19.37h-.37v1.11h-.37v1.48h-.49v.74H122v.86h-.37V274h-.37v.75h-.37v.74h-.37v.37h-.37v.74h-.37v.49h-.37v.37H119v.37h-.37v.37h-.5v.37h-.37V279h-.37v.37h-.37v.37h-.37v.37h-.37v.37h-.74v.5h-.74v.37H114v.37h-.74v.37h-1.11v.37h-1.61v.37h-3v.37H97.18V242.31h10v.37h3v.37h1.61v.37h1.11v.37H114v.37h.86v.37h.37v.37h.74v.49h.74v.37h.37v.37h.37v.37h.37v.37h.37v.37h.5v.37H119V248h.37v.37h.37v.37h.37v.5h.37V250h.37v.37h.37v.74h.37v.74H122v.74h.37v1.23h.49v1.11h.37V256h.37v2H124v8.76h-.37Z"/><polygon class="cls-1" points="20.79 236.5 19.18 236.5 19.18 236.88 18.07 236.88 18.07 237.37 16.96 237.37 16.96 237.74 16.22 237.74 16.22 238.11 15.35 238.11 15.35 238.48 14.61 238.48 14.61 238.85 13.87 238.85 13.87 239.22 13.5 239.22 13.5 239.59 12.76 239.59 12.76 239.96 12.39 239.96 12.39 240.33 11.9 240.33 11.9 240.7 11.16 240.7 11.16 241.07 10.79 241.07 10.79 241.56 10.42 241.56 10.42 241.94 10.05 241.94 10.05 242.31 9.68 242.31 9.68 242.68 9.31 242.68 9.31 243.05 8.94 243.05 8.94 243.42 8.57 243.42 8.57 243.79 8.07 243.79 8.07 244.53 7.7 244.53 7.7 244.9 7.33 244.9 7.33 245.39 6.96 245.39 6.96 246.13 6.59 246.13 6.59 246.5 6.22 246.5 6.22 246.87 5.85 246.87 5.85 247.61 5.48 247.61 5.48 248.35 5.11 248.35 5.11 249.22 4.74 249.22 4.74 249.96 4.37 249.96 4.37 250.7 3.88 250.7 3.88 251.81 3.51 251.81 3.51 252.55 3.14 252.55 3.14 253.78 2.77 253.78 2.77 255.26 2.4 255.26 2.4 257.61 2.02 257.61 2.02 262.18 1.66 262.18 1.66 263.29 2.02 263.29 2.02 267.85 2.4 267.85 2.4 269.83 2.77 269.83 2.77 271.68 3.14 271.68 3.14 272.91 3.51 272.91 3.51 274.02 3.88 274.02 3.88 274.76 4.37 274.76 4.37 275.5 4.74 275.5 4.74 276.62 5.11 276.62 5.11 277.11 5.48 277.11 5.48 277.85 5.85 277.85 5.85 278.59 6.22 278.59 6.22 278.96 6.59 278.96 6.59 279.7 6.96 279.7 6.96 280.07 7.33 280.07 7.33 280.44 7.7 280.44 7.7 281.31 8.07 281.31 8.07 281.68 8.57 281.68 8.57 282.05 8.94 282.05 8.94 282.42 9.31 282.42 9.31 282.79 9.68 282.79 9.68 283.16 10.05 283.16 10.05 283.53 10.42 283.53 10.42 283.9 10.79 283.9 10.79 284.27 11.16 284.27 11.16 284.76 11.9 284.76 11.9 285.13 12.39 285.13 12.39 285.5 12.76 285.5 12.76 285.87 13.5 285.87 13.5 286.24 13.87 286.24 13.87 286.61 14.61 286.61 14.61 286.98 15.35 286.98 15.35 287.35 16.22 287.35 16.22 287.72 17.33 287.72 17.33 288.09 18.07 288.09 18.07 288.46 19.55 288.46 19.55 288.96 21.52 288.96 21.52 289.33 29.55 289.33 29.55 288.96 31.4 288.96 31.4 288.46 33 288.46 33 288.09 34.12 288.09 34.12 287.72 34.85 287.72 34.85 287.35 36.09 287.35 36.09 286.98 36.83 286.98 36.83 286.61 37.2 286.61 37.2 286.24 37.94 286.24 37.94 285.87 38.68 285.87 38.68 285.5 39.05 285.5 39.05 285.13 39.42 285.13 39.42 284.76 40.29 284.76 40.29 284.27 40.66 284.27 40.66 283.9 41.03 283.9 41.03 283.53 41.4 283.53 41.4 283.16 41.77 283.16 41.77 282.79 42.14 282.79 42.14 282.42 42.51 282.42 42.51 282.05 42.88 282.05 42.88 281.31 43.25 281.31 43.25 280.94 43.62 280.94 43.62 280.44 44.11 280.44 44.11 279.7 44.48 279.7 44.48 279.33 44.85 279.33 44.85 278.59 45.22 278.59 45.22 277.85 45.59 277.85 45.59 277.48 45.96 277.48 45.96 276.62 46.33 276.62 46.33 275.13 40.29 275.13 40.29 275.88 39.91 275.88 39.91 276.25 39.42 276.25 39.42 276.62 39.05 276.62 39.05 277.48 38.68 277.48 38.68 277.85 38.31 277.85 38.31 278.22 37.94 278.22 37.94 278.59 37.57 278.59 37.57 278.96 37.2 278.96 37.2 279.33 36.83 279.33 36.83 279.7 36.46 279.7 36.46 280.07 35.6 280.07 35.6 280.44 35.23 280.44 35.23 280.94 34.85 280.94 34.85 281.31 34.12 281.31 34.12 281.68 33.37 281.68 33.37 282.05 33 282.05 33 282.42 31.77 282.42 31.77 282.79 31.03 282.79 31.03 283.16 29.92 283.16 29.92 283.53 28.07 283.53 28.07 283.9 23.01 283.9 23.01 283.53 21.52 283.53 21.52 283.16 20.41 283.16 20.41 282.79 19.18 282.79 19.18 282.42 18.44 282.42 18.44 282.05 17.7 282.05 17.7 281.68 17.33 281.68 17.33 281.31 16.59 281.31 16.59 280.94 16.22 280.94 16.22 280.44 15.35 280.44 15.35 280.07 14.98 280.07 14.98 279.7 14.61 279.7 14.61 279.33 14.24 279.33 14.24 278.96 13.87 278.96 13.87 278.59 13.5 278.59 13.5 278.22 13.13 278.22 13.13 277.85 12.76 277.85 12.76 277.48 12.39 277.48 12.39 277.11 11.9 277.11 11.9 276.25 11.53 276.25 11.53 275.88 11.16 275.88 11.16 275.5 10.79 275.5 10.79 274.76 10.42 274.76 10.42 274.02 10.05 274.02 10.05 273.65 9.68 273.65 9.68 272.91 9.31 272.91 9.31 271.68 8.94 271.68 8.94 270.94 8.57 270.94 8.57 269.83 8.07 269.83 8.07 268.22 7.7 268.22 7.7 266.74 7.33 266.74 7.33 258.72 7.7 258.72 7.7 257.24 8.07 257.24 8.07 255.63 8.57 255.63 8.57 254.53 8.94 254.53 8.94 253.78 9.31 253.78 9.31 252.55 9.68 252.55 9.68 251.81 10.05 251.81 10.05 251.44 10.42 251.44 10.42 250.7 10.79 250.7 10.79 249.96 11.16 249.96 11.16 249.59 11.53 249.59 11.53 249.22 11.9 249.22 11.9 248.35 12.39 248.35 12.39 247.98 12.76 247.98 12.76 247.61 13.13 247.61 13.13 247.24 13.5 247.24 13.5 246.87 13.87 246.87 13.87 246.5 14.24 246.5 14.24 246.13 14.61 246.13 14.61 245.76 14.98 245.76 14.98 245.39 15.35 245.39 15.35 244.9 16.22 244.9 16.22 244.53 16.59 244.53 16.59 244.16 17.33 244.16 17.33 243.79 17.7 243.79 17.7 243.42 18.44 243.42 18.44 243.05 19.18 243.05 19.18 242.68 20.41 242.68 20.41 242.31 21.52 242.31 21.52 241.94 23.38 241.94 23.38 241.56 28.07 241.56 28.07 241.94 29.55 241.94 29.55 242.31 31.03 242.31 31.03 242.68 31.77 242.68 31.77 243.05 32.63 243.05 32.63 243.42 33.37 243.42 33.37 243.79 34.12 243.79 34.12 244.16 34.85 244.16 34.85 244.53 35.23 244.53 35.23 244.9 35.6 244.9 35.6 245.39 36.46 245.39 36.46 245.76 36.83 245.76 36.83 246.13 37.2 246.13 37.2 246.5 37.57 246.5 37.57 246.87 37.94 246.87 37.94 247.24 38.31 247.24 38.31 247.98 38.68 247.98 38.68 248.35 39.05 248.35 39.05 248.72 39.42 248.72 39.42 249.22 39.91 249.22 39.91 249.96 40.29 249.96 40.29 250.33 40.66 250.33 40.66 250.7 46.7 250.7 46.7 249.59 46.33 249.59 46.33 248.72 45.96 248.72 45.96 247.98 45.59 247.98 45.59 247.24 45.22 247.24 45.22 246.5 44.85 246.5 44.85 246.13 44.48 246.13 44.48 245.39 44.11 245.39 44.11 244.9 43.62 244.9 43.62 244.53 43.25 244.53 43.25 244.16 42.88 244.16 42.88 243.42 42.51 243.42 42.51 243.05 42.14 243.05 42.14 242.68 41.77 242.68 41.77 242.31 41.4 242.31 41.4 241.94 41.03 241.94 41.03 241.56 40.66 241.56 40.66 241.07 39.91 241.07 39.91 240.7 39.42 240.7 39.42 240.33 39.05 240.33 39.05 239.96 38.31 239.96 38.31 239.59 37.94 239.59 37.94 239.22 37.2 239.22 37.2 238.85 36.83 238.85 36.83 238.48 36.09 238.48 36.09 238.11 35.23 238.11 35.23 237.74 34.12 237.74 34.12 237.37 33.37 237.37 33.37 236.88 31.77 236.88 31.77 236.5 29.92 236.5 29.92 236.13 20.79 236.13 20.79 236.5"/><polygon class="cls-1" points="204.19 236.5 202.71 236.5 202.71 236.88 201.6 236.88 201.6 237.37 200.36 237.37 200.36 237.74 199.62 237.74 199.62 238.11 198.88 238.11 198.88 238.48 198.14 238.48 198.14 238.85 197.28 238.85 197.28 239.22 196.91 239.22 196.91 239.59 196.17 239.59 196.17 239.96 195.8 239.96 195.8 240.33 195.43 240.33 195.43 240.7 194.69 240.7 194.69 241.07 194.31 241.07 194.31 241.56 193.94 241.56 193.94 241.94 193.57 241.94 193.57 242.31 193.08 242.31 193.08 242.68 192.71 242.68 192.71 243.05 192.34 243.05 192.34 243.42 191.97 243.42 191.97 243.79 191.6 243.79 191.6 244.16 191.23 244.16 191.23 244.9 190.86 244.9 190.86 245.39 190.49 245.39 190.49 245.76 190.12 245.76 190.12 246.5 189.75 246.5 189.75 246.87 189.25 246.87 189.25 247.61 188.88 247.61 188.88 248.35 188.51 248.35 188.51 249.22 188.14 249.22 188.14 249.96 187.77 249.96 187.77 250.7 187.4 250.7 187.4 251.44 187.03 251.44 187.03 252.55 186.66 252.55 186.66 253.78 186.29 253.78 186.29 255.26 185.92 255.26 185.92 257.24 185.43 257.24 185.43 261.07 185.06 261.07 185.06 264.03 185.43 264.03 185.43 268.22 185.92 268.22 185.92 270.2 186.29 270.2 186.29 271.68 186.66 271.68 186.66 272.91 187.03 272.91 187.03 274.02 187.4 274.02 187.4 274.76 187.77 274.76 187.77 275.5 188.14 275.5 188.14 276.25 188.51 276.25 188.51 277.11 188.88 277.11 188.88 277.85 189.25 277.85 189.25 278.59 189.75 278.59 189.75 278.96 190.12 278.96 190.12 279.7 190.49 279.7 190.49 280.07 190.86 280.07 190.86 280.44 191.23 280.44 191.23 281.31 191.6 281.31 191.6 281.68 191.97 281.68 191.97 282.05 192.34 282.05 192.34 282.42 192.71 282.42 192.71 282.79 193.08 282.79 193.08 283.16 193.57 283.16 193.57 283.53 193.94 283.53 193.94 283.9 194.31 283.9 194.31 284.27 194.69 284.27 194.69 284.76 195.43 284.76 195.43 285.13 195.8 285.13 195.8 285.5 196.17 285.5 196.17 285.87 196.91 285.87 196.91 286.24 197.28 286.24 197.28 286.61 198.14 286.61 198.14 286.98 198.88 286.98 198.88 287.35 199.62 287.35 199.62 287.72 200.36 287.72 200.36 288.09 201.6 288.09 201.6 288.46 203.08 288.46 203.08 288.96 204.93 288.96 204.93 289.33 212.95 289.33 212.95 288.96 214.93 288.96 214.93 288.46 216.41 288.46 216.41 288.09 217.64 288.09 217.64 287.72 218.38 287.72 218.38 287.35 219.12 287.35 219.12 286.98 219.86 286.98 219.86 286.61 220.6 286.61 220.6 286.24 221.47 286.24 221.47 285.87 221.84 285.87 221.84 285.5 222.58 285.5 222.58 285.13 222.95 285.13 222.95 284.76 223.32 284.76 223.32 284.27 223.69 284.27 223.69 283.9 224.43 283.9 224.43 283.53 224.8 283.53 224.8 283.16 225.29 283.16 225.29 282.42 225.66 282.42 225.66 282.05 226.03 282.05 226.03 281.68 226.4 281.68 226.4 281.31 226.77 281.31 226.77 280.94 227.14 280.94 227.14 280.07 227.51 280.07 227.51 279.7 227.88 279.7 227.88 279.33 228.26 279.33 228.26 278.59 228.63 278.59 228.63 277.85 229.12 277.85 229.12 277.11 229.49 277.11 229.49 276.25 229.86 276.25 229.86 275.13 223.69 275.13 223.69 275.5 223.32 275.5 223.32 276.25 222.95 276.25 222.95 276.62 222.58 276.62 222.58 277.11 222.21 277.11 222.21 277.85 221.84 277.85 221.84 278.22 221.47 278.22 221.47 278.59 220.97 278.59 220.97 278.96 220.6 278.96 220.6 279.33 220.23 279.33 220.23 279.7 219.86 279.7 219.86 280.07 219.12 280.07 219.12 280.44 218.75 280.44 218.75 280.94 218.38 280.94 218.38 281.31 217.64 281.31 217.64 281.68 216.78 281.68 216.78 282.05 216.04 282.05 216.04 282.42 215.3 282.42 215.3 282.79 214.56 282.79 214.56 283.16 213.44 283.16 213.44 283.53 211.47 283.53 211.47 283.9 206.53 283.9 206.53 283.53 204.93 283.53 204.93 283.16 203.82 283.16 203.82 282.79 202.71 282.79 202.71 282.42 201.97 282.42 201.97 282.05 201.1 282.05 201.1 281.68 200.36 281.68 200.36 281.31 199.99 281.31 199.99 280.94 199.62 280.94 199.62 280.44 198.88 280.44 198.88 280.07 198.51 280.07 198.51 279.7 198.14 279.7 198.14 279.33 197.77 279.33 197.77 278.96 197.28 278.96 197.28 278.59 196.91 278.59 196.91 278.22 196.54 278.22 196.54 277.85 196.17 277.85 196.17 277.48 195.8 277.48 195.8 277.11 195.43 277.11 195.43 276.25 195.06 276.25 195.06 275.88 194.69 275.88 194.69 275.5 194.31 275.5 194.31 274.76 193.94 274.76 193.94 274.02 193.57 274.02 193.57 273.65 193.08 273.65 193.08 272.91 192.71 272.91 192.71 272.05 192.34 272.05 192.34 270.94 191.97 270.94 191.97 269.83 191.6 269.83 191.6 268.59 191.23 268.59 191.23 267.11 190.86 267.11 190.86 264.03 190.49 264.03 190.49 261.07 190.86 261.07 190.86 258.35 191.23 258.35 191.23 256.75 191.6 256.75 191.6 255.26 191.97 255.26 191.97 254.53 192.34 254.53 192.34 253.41 192.71 253.41 192.71 252.55 193.08 252.55 193.08 251.81 193.57 251.81 193.57 251.07 193.94 251.07 193.94 250.7 194.31 250.7 194.31 249.96 194.69 249.96 194.69 249.59 195.06 249.59 195.06 249.22 195.43 249.22 195.43 248.35 195.8 248.35 195.8 247.98 196.17 247.98 196.17 247.61 196.54 247.61 196.54 247.24 196.91 247.24 196.91 246.87 197.28 246.87 197.28 246.5 197.77 246.5 197.77 246.13 198.14 246.13 198.14 245.76 198.51 245.76 198.51 245.39 198.88 245.39 198.88 244.9 199.62 244.9 199.62 244.53 199.99 244.53 199.99 244.16 200.73 244.16 200.73 243.79 201.1 243.79 201.1 243.42 201.97 243.42 201.97 243.05 202.71 243.05 202.71 242.68 203.82 242.68 203.82 242.31 204.93 242.31 204.93 241.94 206.53 241.94 206.53 241.56 211.47 241.56 211.47 241.94 212.95 241.94 212.95 242.31 214.56 242.31 214.56 242.68 215.3 242.68 215.3 243.05 216.04 243.05 216.04 243.42 216.78 243.42 216.78 243.79 217.64 243.79 217.64 244.16 218.38 244.16 218.38 244.53 218.75 244.53 218.75 244.9 219.12 244.9 219.12 245.39 219.86 245.39 219.86 245.76 220.23 245.76 220.23 246.13 220.6 246.13 220.6 246.5 220.97 246.5 220.97 246.87 221.47 246.87 221.47 247.24 221.84 247.24 221.84 247.98 222.21 247.98 222.21 248.35 222.58 248.35 222.58 248.72 222.95 248.72 222.95 249.22 223.32 249.22 223.32 249.96 223.69 249.96 223.69 250.33 224.06 250.33 224.06 250.7 230.23 250.7 230.23 249.59 229.86 249.59 229.86 248.72 229.49 248.72 229.49 247.98 229.12 247.98 229.12 247.24 228.63 247.24 228.63 246.87 228.26 246.87 228.26 246.13 227.88 246.13 227.88 245.76 227.51 245.76 227.51 244.9 227.14 244.9 227.14 244.53 226.77 244.53 226.77 244.16 226.4 244.16 226.4 243.79 226.03 243.79 226.03 243.05 225.66 243.05 225.66 242.68 224.8 242.68 224.8 242.31 224.43 242.31 224.43 241.56 224.06 241.56 224.06 241.07 223.32 241.07 223.32 240.7 222.95 240.7 222.95 240.33 222.58 240.33 222.58 239.96 221.84 239.96 221.84 239.59 221.47 239.59 221.47 239.22 220.6 239.22 220.6 238.85 220.23 238.85 220.23 238.48 219.49 238.48 219.49 238.11 218.75 238.11 218.75 237.74 217.64 237.74 217.64 237.37 216.78 237.37 216.78 236.88 215.3 236.88 215.3 236.5 213.44 236.5 213.44 236.13 204.19 236.13 204.19 236.5"/><path class="cls-1" d="M154.2,237.37h-.49v1.11h-.37v1.11H153v1.11h-.37v1.24h-.37v1.11h-.37v1.11h-.37v.74h-.37v1.23h-.37v1.11h-.37v1.11h-.5v1.24h-.37v1.11h-.37v1.11h-.37v.74h-.37v1.23H148v1.11h-.37V256h-.37v1.23h-.37v1.11h-.37v1.11h-.49v.74h-.37v1.61h-.37v.74H145v1.11h-.37v1.11h-.37V266h-.37v1.11h-.37v1.11h-.38v.87h-.37v1.11h-.37v1.11h-.49v1.11h-.37v1.23h-.37v1.12h-.37v.74h-.37v1.11H140v1.23h-.37V279h-.37v1.11h-.37v1.24h-.37v1.11H138v.74h-.38v1.11h-.37v1.23h-.37v1.11h-.37v1.85h5.31v-1.11h.49v-.74h.37V285.5h.37v-1.23h.38v-1.11h.37v-1.11h.37v-1.11h.37V279.7H145v-1.11h.37v-.74h.37v-1.6h.37v-.74h.49v-1.12h.37v-1.11h.37v-.86h19.87v.49h.37V274h.37v1.12h.37v1.11h.37v1.23H169v1.11h.37v1.11h.5v1.24h.37v1.11h.37v1.11H171v1.11h.37v1.23h.37v1.11h.37v1.11h.37v.74h5.8v-1.11h-.37v-1.11h-.49v-1.11H177v-.86h-.38v-1.11h-.37v-1.11h-.37v-1.11h-.37V279.7h-.37v-1.11h-.37v-1.11h-.37v-.86h-.37v-1.11h-.49v-1.12h-.37v-1.11h-.37v-1.23h-.37v-1.11h-.37v-1.11h-.37v-.74h-.37v-1.24H171v-1.11h-.37v-1.11h-.37V264.4h-.37v-1.11h-.5v-1.11H169v-.74h-.37V260.2h-.37v-1.11h-.37V258h-.37v-1.23h-.37v-1.11h-.37v-1.12h-.37v-1.11h-.37v-.86h-.49v-1.11h-.37v-1.11h-.37v-1.11h-.37V248h-.37v-1.11h-.37v-1.11h-.37v-.86H163v-1.11h-.37v-1.11h-.38v-1.11h-.49v-1.24h-.37v-1.11H161v-1.11h-.37v-.74h-.37v-.5H154.2Zm-5.06,29h.37v-1.11h.37V264h.5v-1.11h.37v-.74h.37v-1.11h.37v-1.24h.37v-1.11h.37v-1.11h.37v-1.23H153v-1.11h.37v-1.12h.37v-1.23h.49v-1.11h.37V250.7h.37v-1.11h.37v-1.24h.37v-1.11h.37v-.74h.37v-1.11h.37v-1.23h.75v1.23h.37v1.11h.49v1.11h.37v1.11h.37V250h.37v.74h.37v1.11h.37v1.11h.37v1.23H161v1.12h.37v1.11h.37v1.23h.49v1.11h.38v1.11H163v.74h.37v1.61h.37v.74h.37V264h.37v1.23h.37v1.11h.37v.74H149.14Z"/><polygon class="cls-1" points="55.96 288.46 80.4 288.46 80.4 282.79 61.27 282.79 61.27 265.26 80.4 265.26 80.4 259.83 61.27 259.83 61.27 242.31 80.4 242.31 80.4 236.88 55.96 236.88 55.96 288.46"/><path class="cls-1" d="M117.57,123.14c-8.74,0-14.45-10.22-25.1-10.22-9.65,0-12.85,10.22-21.84,10.22-7.36,0-13.91-10.22-24.16-10.22-13.71,0-13,19.88-34.39,5.58C9.37,116.68,4.16,113,0,112.92v95.73H231.88V112.92c-6.44,4.31-12.85,10.22-22.77,10.22-12.82,0-17.3-18.62-35.51-5.31-1.7,1.24-3.28,2.27-5,3.38-7.92,5.11-13.69-3.17-22.38-7.21-15.58-7.25-18.35,9.14-28.66,9.14"/><path class="cls-1" d="M0,98.52c3.94,2.08,17.18,7.61,23,6.73,9.63-1.45,15.14-6.73,23.5-6.73,9.06,0,15.68,7.27,22.61,6.77,8-.58,14.1-6.77,24.32-6.77,8.16,0,14.54,7.1,22.27,6.88,8.11-.22,14.83-6.88,23.27-6.88,8.59,0,14.76,6.14,22.89,6.86,7,.62,12.82-6.86,24.51-6.86,8.09,0,13.86,6.65,22.81,6.88,6.44.16,18.31-4.54,22.73-6.88V29.74c-.49.36-6.31,8-8.93,10.58-4.49,4.41-8.63,7.08-14.77,7.08-11.25,0-21.38-32.3-34.7-9.61C166,50.61,160.2,48.08,150.21,38c-11.37-11.48-15.45-11.07-23.73,1.13-8.45,12.47-8.14,13-21.81-.67C88.3,22.08,88.15,31.76,78,42.65c-6.06,6.48-11.29,2.84-16.74-2.58-1.15-1.15-1.65-1.31-2.79-2.32-3.39-3-7-8-12.44-8C38.21,29.74,34.51,46,24.16,46,17.33,46,2.3,29,0,28.35Z"/><path class="cls-1" d="M0,15.8c0,2.49,18.58,15.33,23.23,15.33,7.63,0,16.19-20,24.63-20,7.53,0,12.55,20,21.38,20,9.22,0,15.46-20,24.63-20,7.56,0,12,20,20.91,20,8.55,0,15-20,23.7-20,6.64,0,9.08,4.1,12.36,9,1.33,2,6.51,11,9,11,7.18,0,16.78-20,25.56-20,11.34,0,7.49,36.49,40.7,10.49,2.1-1.64,4.49-4.11,5.77-4.45V0H0Z"/></g></g></svg>