<svg xmlns="http://www.w3.org/2000/svg" viewBox="0 0 166.2 186.75"><defs><style>.cls-1{fill:#fff;}</style></defs><title>logo-dark</title><g id="Capa_2" data-name="Capa 2"><g id="Logo"><path class="cls-1" d="M41,116.12c-.6.88-1.21,1.82-1.82,2.83S38,121,37.51,122a7.23,7.23,0,0,1-1.19,2.24c-.4.38-.79.75-1.16,1.13s-.75.77-1.15,1.2c-.57.42-1.88.69-3.93.8a7.83,7.83,0,0,1-2.73-1.28,5.83,5.83,0,0,1-1.12-2.17,8.74,8.74,0,0,1-.68-2.32,2.5,2.5,0,0,1,.17-.48c.12-.27.23-.56.34-.88s.25-.63.39-.92a1.78,1.78,0,0,0,.21-.68c.35-.5.75-1,1.2-1.55a20.55,20.55,0,0,1,2.28-2.29c1.44-1.37,2.62-2.61,3.53-3.61,1.92-2.12,2.48-3,2.48-4.09q0-3.77-5.3-3.77c-1.54,0-4.19.73-8,2.17-.13.17-.25.36-.38.56a9.86,9.86,0,0,0-.56,1,16.7,16.7,0,0,1-.3,2.62c-.11.57-.14.59-.19,1a17.26,17.26,0,0,0,0,2.58c0,.29,0,.73,0,1.28l-.17,1.44c0,.23.07.49.09.75s0,.33,0,.49l-.05.77c0,.17-.06.43-.1.74-.08.54-.17,1.23-.22,1.78a18.83,18.83,0,0,0,.07,2.92c.06.86.08.71.13,1.4a29,29,0,0,1,0,3.07c-.05,1.41-.12,1.25-.1,2,0,.93.14,1.2.14,2.32,0,.41-.05.47,0,1.29,0,.37,0,.89,0,1.56a4.46,4.46,0,0,0,0,1.12c0,.43.07.91.12,1.44s.1,11.81.13,12.24.05.77.05,1v.64a6.12,6.12,0,0,1-.09,1c0,2.19.06,19.63.17,20.16a9.47,9.47,0,0,0-.17,2.32,21.85,21.85,0,0,0,1.54,8.5q0,3.36-2.91,3.36a3.15,3.15,0,0,1-3.16-1.92,6.81,6.81,0,0,0-1.71-2,16.49,16.49,0,0,1-2-1.93l.77-.48a3,3,0,0,0,2.05-.08,8.62,8.62,0,0,0,1.79-4.64c.11-.86.21-1.71.3-2.57s.18-17.78.3-18.63l.08-2c0-.21,0-.53.05-1s.07-.88.12-1.36c.21-1.7.09-8.77.09-12.16,0-1.77,0-2.09,0-3.44,0-.44,0-1,0-1.68,0-.88.11-1.6.17-2.09s0-.79,0-1,0-.37,0-1.26c0-.34,0-.62,0-.82,0-.67,0-1.36,0-2.08s0-1.26-.08-1.85c0-.31-.05-.8-.07-1.4,0-.88,0-1.44,0-3.16v-1.85a80.28,80.28,0,0,0-.26-9.77A59.85,59.85,0,0,0,11,112.14a58.15,58.15,0,0,0-7.18,6l-1,.08A2.34,2.34,0,0,1,.9,117.3a3,3,0,0,1-.9-2,5.44,5.44,0,0,1,1.45-3.76l1-.84c.54-.46,1.29-1.06,2.26-1.81l2.22-1.2c.8-.42,2.15-1.05,4.06-1.88l7.56-3.25a7.17,7.17,0,0,0,.52-2.08,3,3,0,0,1-.26-1.28q0-4.89,3.85-6.73a2.57,2.57,0,0,1,1.48-.38,2.63,2.63,0,0,1,.91.22,3.4,3.4,0,0,1,2.31,3.36q0,1.44-2.4,4.25v.32a6.24,6.24,0,0,0,1.28-.16c.52-.11,1-.24,1.58-.4s1.06-.29,1.54-.4a5.51,5.51,0,0,1,1.16-.16,10.08,10.08,0,0,0,1.71-.24,12.39,12.39,0,0,1,3.16.4,11.54,11.54,0,0,0,1.62.44l1,.2q.51.32,1,.6l1.11.6a2.92,2.92,0,0,1,1.46,1.6l.51,1.13a3.81,3.81,0,0,0,.51,1.76l.26,1s.15.72.23,1.48a13.64,13.64,0,0,1-.23,4.62A9.45,9.45,0,0,1,41,116.12Z"/><path class="cls-1" d="M66.27,126.4a1.81,1.81,0,0,1-.13.72c0,.16-.12.32-.34.48s-.17.27,0,.48c-.4.64-.84,1.31-1.33,2s-1,1.41-1.66,2.16l-2.14,2c-1.48,1.11-2.79,2-3.84,2.73-1.64,1.09-2.3,1.45-3.23,1.5a5.3,5.3,0,0,1-2.63-.62,5.05,5.05,0,0,1-1.15-.88l-1.88-1.61a5.54,5.54,0,0,1-1.45-1.84,12.61,12.61,0,0,1-.75-3.6c0-.34,0-.66,0-1a9,9,0,0,1,.17-2.32c0-.32,0-.72,0-1.2s.07-1,.13-1.68c.23-2.35.85-3.9,1.88-4.65a12.81,12.81,0,0,1,2.31-1.92l2.13-.32,1,.16a.94.94,0,0,1,.68.4,4.13,4.13,0,0,1,.6,1,5.7,5.7,0,0,1,.38,1.12,2.66,2.66,0,0,1,0,1c-.12.54-.2,1-.26,1.53-.06,1.06-.14,2-.26,2.72-.17.91-.25,1.28-.25,1.12-.06.59-.1,1.18-.13,1.76a11.47,11.47,0,0,0,0,1.76c0,.27.09,1.53.26,3.77.06.32.14.66.23,1s.19.68.29,1a1.45,1.45,0,0,0,.59.32c.28.07.75.07,3.08-1.68.56-.43,1-.8,1.36-1.12l.86-.8c.74-.8,1.44-1.6,2.09-2.4s1.27-1.63,1.84-2.49c.41-.61.93-1.23,1.2-1.12S66.25,126.26,66.27,126.4ZM56.65,103A4,4,0,0,1,55,103a6.38,6.38,0,0,0-1.28-.24,6.58,6.58,0,0,1-3.25-2.25l-.09-.67c0-.32-.1-.61-.12-.73a9.15,9.15,0,0,0-.47-1.64,3,3,0,0,1,1.79-2.72A7.08,7.08,0,0,1,55,94a1.14,1.14,0,0,1,.85,0A6,6,0,0,1,60,98.44v.8C59.07,101.49,58,102.74,56.65,103Z"/><path class="cls-1" d="M88.27,129c-.23.43-.48.94-.77,1.53a12.25,12.25,0,0,0-1.71,2.32,5.39,5.39,0,0,1-.81,1c-.42.46-1,1.06-1.83,1.8a18.76,18.76,0,0,1-3.76,2.81h-1c-.91,0-2-.65-3.25-1.92s-2-2.44-2-3.13c0-.16,0-.48-.05-1s-.07-1.12-.12-1.92l.17-2.41c-.06,0-.12,0-.17-.16s-.12-.16-.17-.16a6.11,6.11,0,0,1-.56.4,8.8,8.8,0,0,1-1.32.72,3.86,3.86,0,0,1-1.54.4,5.87,5.87,0,0,1-2.57-.76c-.62-.26-1.12-.51-1.45-.68a6,6,0,0,1-1.79-1.9,13.36,13.36,0,0,1-1.1-3.21s0,0,0,.07v-1.12a4.16,4.16,0,0,1,.77-2.25c.5-.79.89-1.38,1-1.52a7.19,7.19,0,0,1,1.88-1.52,4.73,4.73,0,0,1,1.45-.8,5.32,5.32,0,0,1,1-.16,4.27,4.27,0,0,1,2,.24,3.7,3.7,0,0,1,1,.56c.23,0,.46.43.68,1.12v1.28a1.61,1.61,0,0,0-.08.48,6.78,6.78,0,0,1-.69,1.6,10.94,10.94,0,0,1-2,1.36,2.05,2.05,0,0,0-.39.5,2.35,2.35,0,0,0-.3,1.19,8.21,8.21,0,0,0,.69,2.29c.11.28.18.44.34.51s.66-.18,1.28-.6c1.24-.83,1.34-.58,1.64-1,.62-.81,0-1.63.5-2.59a2.59,2.59,0,0,1,1.54-1.13,4.75,4.75,0,0,1,1-.36l1.07-.28H78.1a1.52,1.52,0,0,1,1.2.64,2,2,0,0,1,.51,1.21c0,.1,0,.36-.08.76a6.66,6.66,0,0,0-.09.84,4,4,0,0,1,0,.56c0,.21-.07.45-.13.72l-.08,3.6a4.46,4.46,0,0,0-.17,1.21,5.46,5.46,0,0,0,.08.8c.06.37.09.58.09.64l-.09.88c.23,1.18.43,1.76.6,1.76,1.14-.1,2.9-1.31,5.3-3.6.34-.32,1.48-1.77,3.41-4.33a.6.6,0,0,0,.26.08.27.27,0,0,1,.17.08L88.79,128C88.67,128.27,88.5,128.62,88.27,129Z"/><path class="cls-1" d="M120.06,129.77a8.67,8.67,0,0,1-.94,1.12c-.29.42-.6.85-.94,1.28a20.78,20.78,0,0,1-7.18,5.68,4.73,4.73,0,0,1-.75.13,3.25,3.25,0,0,1-1.26-.13,2.52,2.52,0,0,1-.55-.23,7.12,7.12,0,0,1-1.71-.76,6.74,6.74,0,0,1-1.5-1.25,7.41,7.41,0,0,1-1.06-1.56,3.56,3.56,0,0,1-.43-1.64c0-1.44-.23-2.38-.69-2.8-.4.42-.91,1-1.53,1.76s-1.4,1.63-2.31,2.64a38.48,38.48,0,0,1-4.53,4,4.22,4.22,0,0,1-2.31.48,4.79,4.79,0,0,1-1.45-.65,7.07,7.07,0,0,1-1.2-.87q-2.82-2.32-2.9-8.74l.08-.8.35-3.6a11.76,11.76,0,0,0,.14-2.26c-.06-2.39-.8-3.83,0-5a4.56,4.56,0,0,1,.48-.54,12.07,12.07,0,0,1,1.91-1.63q.51-.31,1.32-.72c.54-.26,1.19-.53,1.93-.8l1.62-.08a5.83,5.83,0,0,1,2.22,1.1,2.43,2.43,0,0,1,.72.56,2.86,2.86,0,0,1,.58,1.35,7.08,7.08,0,0,1,.15,2,6.94,6.94,0,0,1-1.79,2.08c-.69.54-1.34,1.1-2,1.68a4.31,4.31,0,0,0-1.27,1.74,18.31,18.31,0,0,0-.95,6.3c-.11,3.47.14,5.28.77,5.44q1.8.81,5.47-5.28a86.28,86.28,0,0,1,4.27-7.77,4.3,4.3,0,0,1,4.36-1.69c1.17,0,1.51.41,1.63.6s.09.45.19,1.65c0,.3,0,.55.06.72s0,.29,0,.5c0,.73.06,1.5,0,2.3,0,1-.12.89-.12,1.68,0,.38,0,.9.08,1.57s.14,1.45.26,2.36c.28,2.56.63,3.87,1,3.92.57.17,2.17-.88,4.79-3.12q3.59-3.12,3.76-3.69c.11-.42.6-.66,1.45-.72.23.16.3.27.22.32s0,.19.21.4A4.45,4.45,0,0,0,120.06,129.77Z"/><path class="cls-1" d="M136.72,130.09a5.34,5.34,0,0,1-1,1,18,18,0,0,1-1.75,1.18,41.21,41.21,0,0,0-6,2.48c-3.19,1.55-4.82,2.59-4.87,3.12l-.17.41c0,.49-.07,1.21-.09,2.08,0,2.16.06,3.75.11,4.47.09,1.6.2,4,.25,7.48.24,10.09.43,14,.58,14.7,0,0,.13.61.27,1.39.11.6.17,1,.21,1.24a22.27,22.27,0,0,1,.64,3.6,4.27,4.27,0,0,1-.43,1.56,5.49,5.49,0,0,1-2.39,2.36,9.25,9.25,0,0,1-3.42,1.12,5.73,5.73,0,0,1-5-1.12,18.42,18.42,0,0,1-4.87-4.64,16,16,0,0,1-2.34-4.68,13.7,13.7,0,0,1-.43-2c-.07-.54-.15-1.08-.23-1.62-.17-.32-.25-11.25-.25-11.35a14.11,14.11,0,0,1,2.39-8.25,21.24,21.24,0,0,1,2.52-2.93,39.2,39.2,0,0,1,3.8-3.24c1.26-.7,3-1.76,5.22-3.21l.08-.48-.17-7.45c-.06-.56-.11-1.12-.17-1.68-.06-1.09-.14-2.37-.25-3.8a13.89,13.89,0,0,0-.43-2.93c-.14-.49-.17-.43-.51-1.52a20.16,20.16,0,0,1-.67-2.42c-.11-.6-.16-1.09-.19-1.43a3.52,3.52,0,0,1,.13-.84,5.89,5.89,0,0,1,.34-1c.06-.14.24-.59.39-.88a5,5,0,0,1,1.45-1.64,5.18,5.18,0,0,1,3.37-1.26,3.3,3.3,0,0,1,2.44.86,3.24,3.24,0,0,1,.85,2.44,3.08,3.08,0,0,1-.26,1.52c-.1.26-.12.49-.34,1.2-.12.43-.3,1-.51,1.68l-1.37,4.89c-.1,1-.16,2-.17,3v1.36a27.08,27.08,0,0,1-.17,3.6l-.25,2.65c.08.72.17,1.44.25,2.16q2.14-.64,4.32-1.44l4.57-1.68a3.69,3.69,0,0,0,1.28-.12,10.18,10.18,0,0,0,3.08-1.81c.17-.1.28-.05.34.16s.2.25.26.32C137.48,129.07,136.76,130,136.72,130.09Zm-16.38,18.49-.36-7.84V139.6l-.43.18q-8.72,6.25-9.23,11.7c.06.58-.37,12.86,1.59,15.54a6.75,6.75,0,0,0,2.48,2.24c.21.14,3.64,2.75,4.44,1.92s1.09-6.9,1.15-7.81l.35-6.54V151C120.33,150.2,120.33,149.39,120.34,148.58Zm9.8-51a5.37,5.37,0,0,1-2.47,1.84,8.35,8.35,0,0,1-2.91.64,6.39,6.39,0,0,1-1.45,0c-1.86-.24-3.12-1.72-3.93-2.8q-2.05-2.71-2.06-4.41a9.27,9.27,0,0,1,1.8-2.8,8.06,8.06,0,0,1,2.8-.86,8.79,8.79,0,0,1,5.83,1.58c1.31.85,3.06,2,3.25,3.93A4.45,4.45,0,0,1,130.14,97.56Z"/><path class="cls-1" d="M165.56,128.18a29,29,0,0,1-3.71,6.55,10.29,10.29,0,0,1-3.42,3.17,9.43,9.43,0,0,1-2.65.88,8.81,8.81,0,0,1-1.46.12q-2.55,0-5.29-7.13h-.09l-2.05,2.16a15,15,0,0,0-2.09,2,11,11,0,0,1-1,1.15c-.26.25-.49.45-.64.58a4.71,4.71,0,0,1-2.82,1.12c-1,0-2.36-.78-4.19-2.33a7.81,7.81,0,0,1-2.84-7.54,12.39,12.39,0,0,1,1.43-3.71,20.66,20.66,0,0,1,1.88-3.12c.21-.29.47-.61,1.16-1.41a39.69,39.69,0,0,1,5.55-5.6,14.45,14.45,0,0,1,1.28-1,9,9,0,0,1,5-1.68,10,10,0,0,1,2.82.64c1.2.38,1.88.83,2,1.36.46.43.54,1.21.26,2.33a6.24,6.24,0,0,1-2.65,1.84,11.51,11.51,0,0,1-1.24.12c-.54,0-1.24,0-2.1,0a3.67,3.67,0,0,0-2.9.08A11.6,11.6,0,0,0,143,123c-.29,1-.6,2-.94,3s-.66,2-.94,3l-.6,2.65v.72l.26,1.44v.8l.25.4h.26q4.69-3,7.95-9.93a3,3,0,0,0-.43-.52,1,1,0,0,1-.34-.68c0-.31.07-.83,1.37-1.84,1.51-1.19,2.58-2,4-1.85a3.93,3.93,0,0,1,1.71.68c.69.46,1,.87,1,1.25a3.83,3.83,0,0,1-.6,1.84c-.29.53-.5.93-.64,1.2s-.25.45-.3.56a23.84,23.84,0,0,0-1,7.93,5.48,5.48,0,0,0,.6,2.64l1,.24c1.42,0,3.39-1.49,5.89-4.48a28.48,28.48,0,0,0,4.36-6.73l.34.8C166,126.78,165.77,127.48,165.56,128.18Z"/><path class="cls-1" d="M72.57,74.62a42.45,42.45,0,0,1-10.29-6.16,45.76,45.76,0,0,1-8.85-9.57A50.22,50.22,0,0,1,50,53.15,40.92,40.92,0,0,1,47.43,47a28.72,28.72,0,0,1-1.29-12.69c.16-1,.25-.81.38-1a1.89,1.89,0,0,0,.28-.62c.13-.39.3-1,.66-2a17.9,17.9,0,0,1,3-5.54,35.3,35.3,0,0,1,5-5,39.85,39.85,0,0,1,13.66-7.26,44.06,44.06,0,0,1,16-1.8A40.12,40.12,0,0,1,99.9,15l-1.11-.36c1.66.75,3.51,1.59,5.3,2.62A26.55,26.55,0,0,1,109,20.81c0,.07-1-.75-.41-.07a16.38,16.38,0,0,1,3,2.79c1.23,1.38,2.33,3,2.84,3.61a7.64,7.64,0,0,1,.63,1.4c.14.38.29.82.7,1.71.41.62.8,1.25,1.18,1.9a27.79,27.79,0,0,1,3,10.48,84.6,84.6,0,0,1,.31,12.68c0-.42,0-1.26-.14-.6a46,46,0,0,1-1.66,10.66,30.26,30.26,0,0,1-5.11,10.39A21.43,21.43,0,0,1,109,79.9a20.24,20.24,0,0,1-5.34,2.72A39.68,39.68,0,0,1,92,84.18c.62-.1,1.18-.27.28-.39a13.77,13.77,0,0,1-3.55.15,53.18,53.18,0,0,1-6-.66c-.88-.31-2.63-.58-4.72-1a42.65,42.65,0,0,1-6.79-2l.41.07a22.91,22.91,0,0,1-4.09-1.48,31.09,31.09,0,0,0-3.57-1.46c-.66-.4-1.3-.81-1.94-1.22-1.6-.33-4.45-2.64-7-4.13l0,.13a30.9,30.9,0,0,1-5.32-4.31l-.14-.2a29.11,29.11,0,0,1-4.34-5.56c-.85-1.38-1.24-2.13-1.36-2-.37-1,.31.3,1,1.41s1.42,2,.68.53a37.89,37.89,0,0,1-5.45-13.85,35.81,35.81,0,0,1-.56-7.53,35.2,35.2,0,0,1,1.11-7.5,30.08,30.08,0,0,1,2.76-7.08,25.6,25.6,0,0,1,4.61-6,33.81,33.81,0,0,1,13-7.5,22.19,22.19,0,0,1,4.15-.87c1-.26,2.79-.65,4.62-1s3.66-.5,4.56-.65a11.64,11.64,0,0,0,2.35.07c1.82,0,2.8,0,3.85-.1a18.5,18.5,0,0,1,4.11.23c-1.59-.1-2.14,0-1.62.15a30.47,30.47,0,0,1,5.71.65,35,35,0,0,1,6,1.81c-.59-.2-1.52-.51-1.41-.36a20,20,0,0,1,5.53,2.66A28.75,28.75,0,0,1,103.26,19c-.37-.32-.74-.62-1.13-.91,1.06,1.13,1.59,1.83,2,2.24a3.71,3.71,0,0,0,.65.67,2.57,2.57,0,0,1,.55.56,12.08,12.08,0,0,1,1.3,2.17c-.67-1.12-.52-.67-.7-.84a19,19,0,0,1,1.92,3.78,30.54,30.54,0,0,1,1.32,4.65,54.56,54.56,0,0,1,.94,9c0-.3-.08-.21-.08-.21a59.35,59.35,0,0,1-.44,8.35A66.24,66.24,0,0,1,108,57.07c-.36,1-.43.83-.61,1.06a4.47,4.47,0,0,0-.43.85c-.24.53-.57,1.36-1.22,2.63.1,0-.11.55-.53,1.3a17.57,17.57,0,0,1-1.74,2.47c-.67.79-1.35,1.44-1.67,1.78s-.27.38.46-.11a18.07,18.07,0,0,1-3.49,2.38,20.85,20.85,0,0,1-4.27,1.65,37.47,37.47,0,0,1-7.38,1.09c2.22-.24-2.4-.35,1.68-.59q-1.55,0-3.09-.12a9.74,9.74,0,0,1,1.63-.08c.61,0,1,0,.55-.12a45.25,45.25,0,0,1-5,0,44.24,44.24,0,0,1-4.79-.45l-2.83-.2c-1-.07-1.94-.15-3-.29a35.24,35.24,0,0,1-7.41-1.79c2.78.84-1.4-.95.47-.35a43,43,0,0,1-8.1-3,3.23,3.23,0,0,1-1.09-.84,8.75,8.75,0,0,0-1.65-1.24c.06.17-1-.55-1.78-1.08a35.69,35.69,0,0,1-3.42-3.28,14.86,14.86,0,0,1-2.76-4c-.19-.43.28.27.69.8s.71.92.09,0c-1.09-1.55-1.6-2.4-2.12-3.25a24.64,24.64,0,0,1-1.71-3.49l0-.09c-.46-1.16-1.09-2.9-1.47-4s-.6-1.65-.37-.29c.47,1.7,0-.69.66,1.83A19.68,19.68,0,0,1,41,42.14a25.4,25.4,0,0,1-.53-5.84A4.07,4.07,0,0,0,40.78,38a22.62,22.62,0,0,1,.68-8,25.63,25.63,0,0,1,3.59-7.76c0-.09-.3.4-.58,1a14.73,14.73,0,0,1-.84,1.69,38.18,38.18,0,0,1,7.11-8.66,36.64,36.64,0,0,1,8.39-5.82c-.86.52-.59.05-.51.05a22.91,22.91,0,0,1,3-1.45,21.68,21.68,0,0,0,2.16-1c.27,0,2.61-1.26,4.82-2.14,1.11-.53.6-.16-1.31.62A71.36,71.36,0,0,1,77.12,3,69.4,69.4,0,0,1,90.62.62a13.85,13.85,0,0,1,2.5-.41,32.2,32.2,0,0,1,4-.2l-.7.22c.81.07,2.29.12,3.61.24a10.34,10.34,0,0,1,2.6.42c1.9.18-1.73-.47-5.21-.47C95.67.4,94,.5,93.05.57s-1.13.07.14-.06c.66.05,2.44-.1,3.92-.14s2.66,0,2.1.12a30.48,30.48,0,0,1,10.24,2A4.81,4.81,0,0,0,108,2.17c-.26,0,0,.15,1.32.62,1.19.42,1.86.71,2.26.88s.55.22.67.26A11.18,11.18,0,0,1,114.46,5a25.75,25.75,0,0,1,2.23,1.38,6.93,6.93,0,0,1,1.71,1.28c.66.61,1.11,1.06.5.3.17.28,1.55,1.58,2.6,3s1.83,2.79,1.53,2.65l-.62-.46a48.12,48.12,0,0,1,2.76,4.61c.08.28.21.85.13.76.14,0,.32.4.51.92a19.25,19.25,0,0,1,.58,2c.4,1.55.74,3.39,1.12,4.65.3,2.27.6,5.16.7,7.76a36.4,36.4,0,0,1-.13,5.95,52.36,52.36,0,0,1-.76,10.65,13,13,0,0,0,.15-2.11c-.48,2.46-.47,3.09-.85,5.36a26.54,26.54,0,0,0-.78,2.56,47.87,47.87,0,0,1-1.76,4.84,11.64,11.64,0,0,0-.69,2.42c0,.2.2.05.19.24-.86,1.39-1.89,3.66-3.44,5.83a18,18,0,0,1-5.38,5.11,20.06,20.06,0,0,0,2-1.8c.53-.57.68-.77-.47.16-1.37.87-2.63,1.87-4.24,2.87a18.59,18.59,0,0,1-6.1,2.48c.44,0,.89,0,1.33,0-1.16.23-3,.72-4.57,1s-2.75.36-2.5.15a28.5,28.5,0,0,1-3.61.22c-1.23,0-2.18,0-1.89.21-2.11-.09-4.43-.22-6.8-.36l-3.56-.19c-1.23-.06-2.41-.15-3.59-.26a38.16,38.16,0,0,1-11.37-2.53c-.59-.14-1.6-.47-2.39-.75s-1.36-.48-1.1-.27a25,25,0,0,0,3.38,1.18,4,4,0,0,0-1.43-.3,24.94,24.94,0,0,1-2.8-1.2c-.47-.27-.35-.29.86,0l-5.62-2.52q-.59-.27-1.23-.6l-.65-.36c-.27-.15-.48-.28-.74-.44a21.85,21.85,0,0,1-3.53-2.83c.18.06.17,0-.08-.3s-.74-.79-1.49-1.62a24,24,0,0,1-2.72-3.29A15.11,15.11,0,0,1,48.76,61c-.17-.47-.2-.68-.16-.75s.38.28.47.17a22.06,22.06,0,0,1-1.3-3.82c-.31-1.24-.48-2.32-.62-2.91a24.05,24.05,0,0,1,.24-3.18c-.15,1.15-.19.62-.16-.36s.2-2.39.27-3c0,.4-.08.81-.1,1.22.08-.23.19-1.09.37-2.08s.42-2.08.61-2.82a9.6,9.6,0,0,0-.67,2,26.59,26.59,0,0,0-.58,3,31.54,31.54,0,0,1,.8-5.13c0,.14.1,0,.26-.42l.6-1.6a35.11,35.11,0,0,1,1.69-3.79c1.16-2.07,1.13-2.45,1.5-3a14,14,0,0,0,1-1.4c.44-.58.74-1,.27-.16a20.41,20.41,0,0,0-1.75,2.66,16.57,16.57,0,0,1,1-1.33c.35-.44.77-1.07,1.69-2.4.71-1,.52-.94.53-1.09s.19-.52,1.84-2.15a14.9,14.9,0,0,0-1.41,1.94,38.29,38.29,0,0,1,3.06-3.05l0-.3c.47-.35.19-.06.4-.22a19.24,19.24,0,0,1,2.9-2.63c1.27-1,2.57-1.89,2.92-2.26a39.9,39.9,0,0,1,6-3l-.36.19c2.36-1,5.5-2.18,7.53-2.88l-.09.07c.67-.18,1.8-.47,3-.75s2.42-.53,3.28-.71a4.28,4.28,0,0,1,2.42.18c.36.13.74.17,2.66-.05,1.77-.06,3.16-.11,3.94-.19s.94-.2.22-.32a45.13,45.13,0,0,1,9.89,1.84,27.41,27.41,0,0,1,8.68,4.41,9.34,9.34,0,0,1,2,1.21,32.94,32.94,0,0,1,5.11,5.24A18.84,18.84,0,0,1,122.05,34,24.94,24.94,0,0,1,122,47.19c-.2.76-.51,1.85-.95,3.15A31,31,0,0,1,118.23,57,22.76,22.76,0,0,1,113,62.81c1.23-1,.39-.1-.54.75,0-.26-.73.3-1.89,1.08s-2.72,1.77-4.11,2.54l-.31.38c-.65.24-1.31.47-2,.67s-.83.48-1.34.75a10.84,10.84,0,0,1-2.82.94,2.65,2.65,0,0,0-1,0,42,42,0,0,1-5.42,1.35,33.83,33.83,0,0,1-5.73.58c-1,0-1.91-.11-2.86-.19-1.49.06-4,.22-1.38.31-3-.08-5.4-.24-7.31-.39a38.41,38.41,0,0,1-4.24-.53c-2.54,0-5.35-.14-8.3-.25a35.72,35.72,0,0,1-9.54-1.53,29.77,29.77,0,0,1-9.08-4.5,22.06,22.06,0,0,1-6.47-7.48l.31.27a17.64,17.64,0,0,0-1.11-2.2,3.79,3.79,0,0,1-.66-1.56c.23.51.11-.14.06-.59s0-.71.43.52c-.32-1.15-.53-2.11-.69-2.94l-.21-1.15,0-.26,0-.3-.06-.49a23.66,23.66,0,0,1-.3-3.92c-.09-.24-.09.38-.07,1s0,1.18-.08.89A25.46,25.46,0,0,1,36.37,43c.14-1.66.44-3.32.37-3.72.37-1.14.38-.18.38.46.13-.94.3-1.89.52-2.83.69-1.64.19.32,0,2.27s-.24,3.87.19,2.12c.11-.86.25-1.7.43-2.54.44-1.16.1.51,0,1.69a3.9,3.9,0,0,0-.07,1c0-.07.12-.69.47-2.25.22-1.36.46-2.64.53-3.29s-.08-.67-.53.51l.89-2.89c.18-.61.26-1,.34-1.34a7.17,7.17,0,0,1,.45-1.4,17.89,17.89,0,0,1,1.6-2.91c.56-.68-.16.39-.83,1.57s-1.25,2.46-.86,2a48.6,48.6,0,0,1,4.76-7.27c-1,1.11-1.13,1.15-.9.7a14.67,14.67,0,0,1,1.5-2.11c1.16-1.15.85-.71.65-.41s-.32.45,1.29-1.18a8.83,8.83,0,0,1,.66-.81l.84-1c.48-.53.51-.66-.84.53a6.37,6.37,0,0,1,1-1.12,16.26,16.26,0,0,1,1.42-1.21c1-.82,2.19-1.64,3.14-2.48.7-.32-.2.49-.71,1s-.68.8,1.41-.59c-.4.12.82-.85,1.89-1.63s2-1.43.71-.92c1.76-.93,2-.83.87,0,1.26-.63,2.71-1.53,4-2.22a7.2,7.2,0,0,1,3-1.13l.79-.61c.86-.24,2.06-.62,3.46-.94,1.17-.39,3.05-1.05,4.64-1.5s2.88-.71,2.81-.49c.38-.11,2-.44,3.16-.68s2.06-.43,1-.41a23.91,23.91,0,0,0-3.52.64,11.54,11.54,0,0,1-2.39.37c2.48-.29,4.94-1.1,7-1.49l.35.11c1.19-.25,4-.5,4.71-.71-.92.17-.43.23.53.2l1.26-.32c2.47-.17,2.76,0,3,.07s.53.21,2.93.25c-1.21,0-2.44.06-3.64.15.8-.05,2.4.13,4.73.21a26.38,26.38,0,0,1,3.48-.21,7.07,7.07,0,0,1,2,.48,10.22,10.22,0,0,0,1.93.51,31.24,31.24,0,0,0-3.56-.63c-.55,0,2.34.69,5.74,2.08,1.1.39,2.5,1,3.2,1.23s.77.15-.88-.76c1.7.8,3.81,2.35,2.48,1.7,1.8,1.08,1.69,1,1.56.81s-.32-.42,1.2.6c.56.51,1.72,1.52,2.88,2.75a33.67,33.67,0,0,1,3.11,3.8,36.6,36.6,0,0,0-2.77-2.52q.87.87,1.68,1.8c-1.17-1.09-1-.74-.6-.28s.77,1.07.08.5c1.06,1.27,2.35,2.81,3.29,4.12-.57-1.08-.65-1.36-.42-1.2a9.43,9.43,0,0,1,1.3,1.5c1.12,1.45,2.27,3.41,2.14,2.67a17.53,17.53,0,0,1,1.43,3.37,14.8,14.8,0,0,1,.4,1.89,14.33,14.33,0,0,0,.42,1.92l.1.31.11.32.28.8.77,2.1c-.08-.57.16-.07.28.06s.15-.13-.51-2.18c.56,2,.8,2.73,1.07,3.51a15.77,15.77,0,0,1,.72,4.2c-.3-1.84-.3-.83-.34,0,0,.4-.06.75-.13.67a9.09,9.09,0,0,1-.41-1.91c.09.17,0-.57-.12-1.45s-.37-1.88-.48-2.27a1.62,1.62,0,0,1-.08,1,14.47,14.47,0,0,0,.31,2.9c.2,1.28.32,2.82.39,4s.1,1.92.23,1.66a5.17,5.17,0,0,0,.1-1.83c0-.78-.08-1.33.1-.5a27.8,27.8,0,0,1-.19,5.3,17,17,0,0,0-.2,3c.28-1.65.42-2.68.57-3.29s.25-.8.34-.76c-.05,1.3-.17,2.61-.35,3.91l-.05-.78c-.28,1.55-.49,2.43-.59,3a7.8,7.8,0,0,0-.15,1,5,5,0,0,1-.15,1,20.44,20.44,0,0,1-1,2.81c-.48.86-1,1.69-1.54,2.49C125,59,126,57,126.59,55.17s.93-3.35.57-2.88a43.87,43.87,0,0,1-1.29,4.38,19.58,19.58,0,0,1-1.92,4c.39-.73.9-1.75,1.21-2.52a19.14,19.14,0,0,1-1.47,2.22c-.72,1-1.66,2.46-3.4,4.67-.94,1.11-1.08,1.25-.92,1.18s.55-.42.59-.33a27.1,27.1,0,0,1-5.56,4.44c-.38.23-.78.45-1.17.66l-.53.28-.61.29a25.29,25.29,0,0,1-2.6,1c.34-.29-1.38.26-2.68.55s-2.16.46,0-.2a23.51,23.51,0,0,0,6.33-2.08,18.6,18.6,0,0,0,5.54-4.07c-1,.6,0-.17,1.16-1.38a12.55,12.55,0,0,0,2.67-3.62,12.3,12.3,0,0,1-2.9,3.24,4.55,4.55,0,0,1-1.15.53c-1,.93-2,1.82-2.61,2.32-.33.55,1.13-.5,1.36-.38a27.44,27.44,0,0,1-6.94,3.88,56.06,56.06,0,0,1-5.77,1.81c-.92.11-1.25.06-1.08-.05a9.39,9.39,0,0,1,1.91-.51,61.65,61.65,0,0,1-19.54.62c.62.12.87.19.87.23a14.25,14.25,0,0,1-2.49-.17c-1.6-.21-3.58-.58-3.56-.77,0,0,0,0,.18-.07-2.12-.29-2.06-.36-2-.42s.14-.14-1.92-.61l-1.6-.33c-.57-.14-1.11-.29-1.68-.47a34.09,34.09,0,0,1-3.38-1.27,35.42,35.42,0,0,1-6.36-3.69,47.26,47.26,0,0,1-7.37-7.49,30.8,30.8,0,0,1-4.83-8.81,3.72,3.72,0,0,1-.22-1.91,5.83,5.83,0,0,0-.19-2.06c-.28-1.75-.26-1.09-.28-.64,0,.23,0,.4-.06.19a16.43,16.43,0,0,1-.21-2.13l.12.5a22.69,22.69,0,0,1,.13-5.61c.3-2.39,1-4.69,1-5.52,0,.56-.1,1.12-.12,1.67.31-.92.53-1.81.78-2.57.15,0,.67-1,.16.49a85.88,85.88,0,0,1,4.82-9q-.72.87-1.41,1.77A51,51,0,0,1,60.69,18c1.56-1.92,3.19-3.76,5.21-5.83l0,.28c.77-.84,1.58-1.66,2.42-2.45-.49.71,2-1.26,3.35-2.43a46.66,46.66,0,0,0-6.29,6.28c-.9.84-.49.31,0-.32s1.07-1.32.44-.86a22.3,22.3,0,0,0-2.76,2.81A19.31,19.31,0,0,0,61,18.35c1.29-1.58,1.32-1.67,2.3-2.93.67-.3-1.37,2-2.12,3.37.64-.85,1.68-1.95,1.75-2.18-1.22,1.7-2.52,3.34-4.47,6.21,1.22-2-.88.95-.45.16.09.4-1.75,3.16-3.68,7a16.16,16.16,0,0,0-1.95,5.36,30,30,0,0,0-.48,7.05A18.49,18.49,0,0,1,52,34.81a17.7,17.7,0,0,0-.67,3.24c-.09.87-.18,1.74-.23,3.32.12.76.28,1.4.51,2.34s.52,2.19,1.13,4.1l-.14.27a18.32,18.32,0,0,0,1.54,3.44c.52.9,1,1.92,2.26,3.88A35.56,35.56,0,0,0,73.29,69.19l.14.27,1.44.35.4.1.43.09.91.2c1.27.27,2.69.56,4.17.81a57.39,57.39,0,0,0,8.36.89A56.43,56.43,0,0,0,101,71.66a59.71,59.71,0,0,0,8.78-1.83,22.71,22.71,0,0,0,8.23-5.3,25.34,25.34,0,0,0,5.26-7.94,32.11,32.11,0,0,0,2.32-9.38,38.38,38.38,0,0,0-.42-10.16c.24.76.45,1.53.65,2.31a8.44,8.44,0,0,1-.3-2.07,7.71,7.71,0,0,0-.28-2c.18,1.43-.06.59-.47-.78-.2-.69-.47-1.51-.74-2.26l-.4-1.06c-.12-.32-.23-.58-.32-.78a32.61,32.61,0,0,0-4.37-9.18,31.78,31.78,0,0,0-6.54-7l0-.3a41.92,41.92,0,0,0-7.76-4.59A29,29,0,0,0,94.9,6.85a19.09,19.09,0,0,0-4.18-.32c-1.92.21-3.37.38-5,.6s-3.56.48-6.3,1.09c-2,.37-4.64.93-7.23,1.66S67,11.49,65.06,12.24a58.6,58.6,0,0,0-10,5.79,45.92,45.92,0,0,0-4.44,3.71,46.64,46.64,0,0,0-4,4.23,32.64,32.64,0,0,0-5.75,10,29.88,29.88,0,0,0-1.57,11.44c-.07.38-.13.76-.19,1.14l0,.36,0,.18v.06s0,.06,0,0h0v.09c0,.24.07.51.12.72.08.44.18.92.29,1.38A19.15,19.15,0,0,0,40.54,54a18.59,18.59,0,0,0,3,5,24.16,24.16,0,0,0,9.87,6.74,33.24,33.24,0,0,0,5.8,1.65c1,.18,2,.32,2.92.42l1.45.12,1.51.11c4,.29,7.68.58,11,.69l-1.32.34a54.52,54.52,0,0,0,6.21.23c1.73-.05,2.79-.2,2.26-.35a54.24,54.24,0,0,0,7.06-.32c2.38-.24,4.53-.61,5.84-.72a22.7,22.7,0,0,0,4.39-1.24c1.1-.44,2.1-.89,3.64-1.63a28.16,28.16,0,0,0,4.66-2.61,26,26,0,0,0,3.32-2.77A27.09,27.09,0,0,0,115,56.43a23.08,23.08,0,0,0,2.45-4.35c-.26.58-.55,1.15-.86,1.7-.16.39-.22.62-.11.55a4.78,4.78,0,0,0,.83-1.3c.3-.66.71-1.61,1.08-2.64a25.85,25.85,0,0,0,.92-3.08c.43-1.91.5-3.13,0-1.75a23.26,23.26,0,0,0,.48-6.54,19.11,19.11,0,0,0-1.64-6.69,14.69,14.69,0,0,0-1.74-2.89l-.57-.72-.55-.66c-.37-.44-.76-.87-1.15-1.28a34.61,34.61,0,0,0-4.91-4.21c.5.47-1.22-.6-2-.9A34.55,34.55,0,0,0,97,18.09a34,34,0,0,0-9.86-.36c-1.18,0,1.84-.39-1.16-.14-1.76.25,0,.16-2.18.53a50.48,50.48,0,0,0-16.75,6A36.62,36.62,0,0,0,54.63,35.61,33.16,33.16,0,0,0,51.43,42c-.21.56-.4,1.13-.58,1.71l-.23.85c-.07.28-.14.58-.21.87A26.77,26.77,0,0,0,49.83,49a21.7,21.7,0,0,0,.38,7,19.17,19.17,0,0,0,2.71,6.4,23.47,23.47,0,0,0,4.71,5.2,32.82,32.82,0,0,0,6,3.87A43.73,43.73,0,0,0,77,75.67l-.23.07,5,.5c.87.08,1.79.16,2.65.22l2.72.2a48.49,48.49,0,0,0,9.49.12c.74,0,2.14,0,3.22-.07s1.83-.13,1.3,0a33.81,33.81,0,0,0,9.07-2.52,19.65,19.65,0,0,0,6.59-4.93,16.15,16.15,0,0,0,1.57-2.1l-1,1.39a26.3,26.3,0,0,0,4.84-9,69.52,69.52,0,0,0,2.55-10.52c-.06.78-.28,2.19-.22,2.44a29.65,29.65,0,0,0,.63-4.82,18.16,18.16,0,0,1,.48-3.83c.1-1.72-.17-1.24-.21-.19a72,72,0,0,0-.2-12.87,51,51,0,0,0-1.08-6.41c-.25-1.07-.54-2.06-.88-3.14a28.16,28.16,0,0,0-1.14-3,22.19,22.19,0,0,0-8.09-9.55,28.94,28.94,0,0,0-12-4.24c-3.05-.49-4.66-.56-5.47-.67s-.82-.17-.75-.23.23-.11-.27-.11a39.2,39.2,0,0,0-4.07.32c-.83,0-.58.24-.72.15-3.8.52-6,.26-8.65,1,1.15.06-1.72.54-1.75.74-3.79.8-6,1.41-8.09,2a42.12,42.12,0,0,0-6.6,2.61l.36-.33a79.66,79.66,0,0,0-9.62,5.6,31.29,31.29,0,0,0-7.35,6.9A23.76,23.76,0,0,0,43.31,34a27,27,0,0,0,2,13.62A29.81,29.81,0,0,0,53.16,59a37.31,37.31,0,0,0,11.91,7.12,47.81,47.81,0,0,0,6.74,2c1.15.24,2.3.45,3.46.62l1.81.26,1.77.23a40.69,40.69,0,0,0,13.82-.27,18.23,18.23,0,0,0,6-2.51,15.43,15.43,0,0,0,4.45-4.58,21.54,21.54,0,0,0,2.59-6.12,51.92,51.92,0,0,0,1.32-6.9,58.38,58.38,0,0,0,.21-13.91,35.68,35.68,0,0,0-1.35-6.67,24.1,24.1,0,0,0-1.19-3.07c-.24-.49-.49-1-.76-1.42s-.63-1-.91-1.42a19.21,19.21,0,0,0-4.49-4.6,24.58,24.58,0,0,0-5.82-3.1,40.36,40.36,0,0,0-13.4-2.31,57.66,57.66,0,0,0-13.79,1.5c-.56.13-1.12.27-1.68.43l-.79.23-.84.26c-1.1.36-2.18.76-3.24,1.19a32.47,32.47,0,0,0-6,3.21,23.8,23.8,0,0,0-8.48,10.14,31.21,31.21,0,0,0-2.05,6.53c-.12.56-.22,1.13-.31,1.71,0,.28-.1.6-.12.84l-.1.86c-.1,1.14-.15,2.29-.14,3.45A33.12,33.12,0,0,0,42.08,48a30.28,30.28,0,0,0,.77,3.82,29.87,29.87,0,0,0,1.32,3.84,35.55,35.55,0,0,0,2.68,5.15c-.26-.3-.57-.82-.3-.22a33.88,33.88,0,0,1,2.2,2.94,13,13,0,0,0,2.72,2.86A24.52,24.52,0,0,0,53.32,68l.47.37.54.41,1,.75c1.4,1,2.85,1.92,4.33,2.79a71.48,71.48,0,0,0,9.22,4.51,72.36,72.36,0,0,0,9.83,3.2,60.88,60.88,0,0,0,10.46,1.7,15.55,15.55,0,0,0-2.24,0c-.24,0,.15.16,1.51.27.94,0,1.89,0,2.83-.05l.46.1c1.86,0,3.84-.29,2-.32a38,38,0,0,0,6.6-.75c.53-.11,1.07-.23,1.59-.37s1-.28,1.48-.46a18,18,0,0,0,2.82-1.3,21,21,0,0,0,8.23-9.33,40.38,40.38,0,0,0,3.48-12.68,60,60,0,0,0,0-13.39,36.15,36.15,0,0,0-3.49-12.59,30.4,30.4,0,0,0-8-10.11A34.32,34.32,0,0,0,95,14.62a43.2,43.2,0,0,0-27.14.74,40.42,40.42,0,0,0-6.9,3.36,37.78,37.78,0,0,0-5.72,4.34,35.32,35.32,0,0,0-3.48,3.55,16.82,16.82,0,0,0-2.49,3.94,19.82,19.82,0,0,0-1.62,9.19,29.34,29.34,0,0,0,2.11,9.33,47.64,47.64,0,0,0,4.56,8.61,46,46,0,0,0,14.1,13.56,50.21,50.21,0,0,0,19,6.89A17.72,17.72,0,0,1,84.12,78a34.32,34.32,0,0,1-4.65-.88A41.48,41.48,0,0,1,72.57,74.62Z"/></g></g></svg>